<svg width="325" height="480" viewBox="0 0 325 480" fill="none" xmlns="http://www.w3.org/2000/svg">
<path d="M325 -8H0V480H325V-8Z" fill="#8046FF"/>
<path d="M162.5 150.148C207.373 150.148 243.75 186.562 243.75 231.481C243.75 276.4 207.373 312.815 162.5 312.815C117.627 312.815 81.25 276.4 81.25 231.481C81.25 186.562 117.627 150.148 162.5 150.148ZM162.5 159.945C123.032 159.945 91.0369 191.973 91.0369 231.481C91.0369 270.99 123.032 303.018 162.5 303.018C201.968 303.018 233.963 270.99 233.963 231.481C233.963 191.973 201.968 159.945 162.5 159.945ZM216.759 261.364C205.472 280.565 184.96 292.417 162.739 292.625L162.065 292.628L161.392 292.625C139.411 292.41 119.101 280.824 107.713 262.001L107.371 261.429H119.037C135.532 283.441 165.949 289.467 189.574 275.402C195.477 271.848 200.65 267.206 204.822 261.723L205.092 261.364H216.759ZM224.867 206.497V211.865C224.928 213.34 224.904 214.818 224.798 216.29L224.754 216.842L204.8 216.956L204.507 217.802C204.589 219.281 204.589 220.764 204.507 222.243C204.426 223.512 204.345 224.976 204.247 226.602C204.562 226.861 204.961 226.991 205.365 226.969L205.466 226.96H206.993C209.691 227.074 212.502 227.09 215.41 227.074C217.996 227.06 220.645 227.084 223.348 227.158L224.364 227.188L224.672 227.578C224.624 229.107 224.542 230.62 224.445 232.1C224.358 233.506 224.349 234.916 224.416 236.323L224.445 236.85L204.166 237.306L203.939 245.732L204.247 246.724C205.374 246.794 206.671 246.804 208.119 246.805L224.217 246.805L224.055 256.988H207.952C202.834 256.972 197.731 257.037 192.678 257.151C192.689 248.605 192.743 240.239 192.841 232.052C192.931 224.449 193.068 216.673 193.252 208.725L193.295 206.887L193.523 206.497H224.867ZM183.107 166.677C184.622 167.014 186.082 167.561 187.446 168.303C188.827 169.039 190.088 169.983 191.183 171.101C192.275 172.206 193.18 173.48 193.864 174.875C194.578 176.287 195.019 177.821 195.164 179.397C195.213 179.742 195.213 180.093 195.164 180.438C195.197 180.98 195.197 181.523 195.164 182.065C195.113 182.677 195.021 183.286 194.888 183.887C194.777 184.391 194.629 184.887 194.446 185.37L194.352 185.611L184.229 183.512C184.255 182.868 184.331 182.226 184.456 181.593C184.602 180.823 184.552 180.028 184.31 179.283C184.061 178.643 183.646 178.082 183.107 177.656C182.548 177.204 181.892 176.887 181.19 176.729C180.319 176.548 179.422 176.52 178.541 176.648C177.602 176.754 176.74 177.221 176.137 177.949C176.04 178.081 175.958 178.223 175.893 178.372C175.795 178.502 175.73 178.649 175.633 178.779C175.534 178.961 175.468 179.159 175.438 179.364C175.032 181.154 174.577 183.073 174.073 185.107C173.569 187.14 164.453 228.034 163.95 230.132C163.446 232.23 162.959 234.345 162.536 236.411C162.114 238.477 161.724 240.478 161.415 242.397C161.546 243.289 161.969 244.113 162.617 244.739C163.242 245.376 164.038 245.817 164.908 246.008C166.248 246.236 167.617 245.827 168.613 244.902C169.576 244.059 170.258 242.943 170.571 241.705L170.612 241.535L176.169 242.771C178.076 243.194 179.83 243.536 181.434 243.796C180.95 247.938 178.751 251.685 175.373 254.125C173.473 255.389 171.359 256.293 169.133 256.793C166.939 257.266 164.665 257.227 162.487 256.679C160.797 256.293 159.186 255.616 157.726 254.678C155.431 253.225 153.515 251.246 152.137 248.904C150.793 246.494 150.151 243.755 150.284 240.998C150.772 239.062 151.275 237.045 151.763 234.736C152.25 232.426 152.754 230.181 153.274 227.871C153.794 225.561 162.926 184.456 163.446 182.162C163.966 179.869 164.47 177.722 164.957 175.753C165.575 173.967 166.579 172.339 167.898 170.987C169.151 169.675 170.639 168.61 172.285 167.848C173.943 167.081 175.717 166.597 177.534 166.416C179.394 166.21 181.275 166.298 183.107 166.677ZM146.645 207.18V207.863C146.547 211.54 146.417 215.443 146.417 219.543C146.352 223.075 146.315 226.647 146.306 230.259L146.303 232.068V256.809L145.93 257.053L135.303 256.907L135.758 207.945C135.766 207.815 135.766 207.684 135.758 207.554L135.749 207.489C135.739 207.392 135.743 207.296 135.872 207.209L135.92 207.18H146.645ZM100.481 206.351L109.97 206.578L114.244 217.151C115.685 220.676 117.19 224.124 118.761 227.497C118.884 226.158 118.941 224.814 118.932 223.47L118.924 222.894V206.627C120.591 206.481 122.192 206.466 123.787 206.465L124.318 206.464H129.729L130.022 206.773C129.935 210.591 129.861 214.318 129.846 218.024L129.843 219.412V231.71C129.843 235.728 129.908 239.827 129.843 243.861C129.785 247.447 129.702 251.084 129.581 254.796L129.534 256.191L129.144 256.419H119.037C117.358 252.385 115.831 248.275 114.455 244.089C113.079 239.903 111.547 235.793 109.857 231.759C109.748 235.587 109.645 239.518 109.548 243.552C109.458 247.276 109.497 251.064 109.666 254.917L109.71 255.882L109.483 256.354H99.0024C99.0024 252.059 98.9699 247.911 99.0024 243.78C99.0349 239.648 99.1161 235.663 99.1161 231.515C99.1161 227.885 99.2156 224.355 99.2405 220.773L99.2461 219.234V206.351H100.481ZM187.348 186.993C192.006 186.993 195.782 190.773 195.782 195.436C195.782 200.098 192.006 203.878 187.348 203.878C182.691 203.878 178.915 200.098 178.915 195.436C178.915 190.773 182.691 186.993 187.348 186.993ZM140.974 186.945C145.631 186.945 149.407 190.724 149.407 195.387C149.407 200.049 145.631 203.829 140.974 203.829C136.316 203.829 132.54 200.049 132.54 195.387C132.54 190.724 136.316 186.945 140.974 186.945Z" fill="white"/>
</svg>
