<svg width="270" height="160" viewBox="0 0 270 160" fill="none" xmlns="http://www.w3.org/2000/svg">
<path d="M49.1903 43.7278V18.1267C49.1903 9.57696 56.0995 2.646 64.6225 2.646H252.382C260.904 2.646 267.814 9.57696 267.814 18.1267V141.973C267.814 150.522 260.904 157.453 252.382 157.453H90.0063" stroke="#096634" stroke-width="3" stroke-linecap="round" stroke-linejoin="round"/>
<path d="M68.8664 56.5703H29.5142C24.6845 56.5703 20.7692 60.4979 20.7692 65.3427V148.681C20.7692 153.526 24.6845 157.453 29.5142 157.453H68.8664C73.6961 157.453 77.6113 153.526 77.6113 148.681V65.3427C77.6113 60.4979 73.6961 56.5703 68.8664 56.5703Z" stroke="#096634" stroke-width="3"/>
<path d="M53.5628 65.1494H44.8178C44.2141 65.1494 43.7247 65.6404 43.7247 66.246C43.7247 66.8516 44.2141 67.3425 44.8178 67.3425H53.5628C54.1665 67.3425 54.6559 66.8516 54.6559 66.246C54.6559 65.6404 54.1665 65.1494 53.5628 65.1494Z" fill="#096634"/>
<path d="M261.802 55.3772C261.802 54.4688 261.068 53.7324 260.162 53.7324C259.256 53.7324 258.522 54.4688 258.522 55.3772V104.722C258.522 105.63 259.256 106.367 260.162 106.367C261.068 106.367 261.802 105.63 261.802 104.722V55.3772Z" fill="#096634"/>
<path d="M9.83806 19.0942C10.4939 19.0942 10.9312 19.5329 10.9312 20.1908C10.9312 20.8487 10.4939 21.2873 9.83806 21.2873H6.5587C4.15385 21.2873 2.18623 23.2611 2.18623 25.6735C2.18623 28.086 4.15385 30.0598 6.5587 30.0598H9.83806C10.4939 30.0598 10.9312 30.4984 10.9312 31.1563C10.9312 31.8142 10.4939 32.2529 9.83806 32.2529H6.5587C2.95142 32.2529 0 29.2922 0 25.6735C0 22.0549 2.95142 19.0942 6.5587 19.0942H9.83806ZM16.3968 19.0942H19.6761C23.2834 19.0942 26.2348 22.0549 26.2348 25.6735C26.2348 29.2099 23.416 32.1179 19.921 32.2483L19.6761 32.2529H16.3968C15.7409 32.2529 15.3036 31.8142 15.3036 31.1563C15.3036 30.5454 15.6807 30.1235 16.2596 30.0664L16.3968 30.0598H19.6761C22.081 30.0598 24.0486 28.086 24.0486 25.6735C24.0486 23.3342 22.1984 21.4074 19.8935 21.2927L19.6761 21.2873H16.3968C15.7409 21.2873 15.3036 20.8487 15.3036 20.1908C15.3036 19.5799 15.6807 19.158 16.2596 19.1009L16.3968 19.0942ZM8.74494 24.577H17.4899C18.1458 24.577 18.583 25.0156 18.583 25.6735C18.583 26.2845 18.206 26.7063 17.627 26.7635L17.4899 26.7701H8.74494C8.08907 26.7701 7.65182 26.3315 7.65182 25.6735C7.65182 25.0626 8.02884 24.6408 8.60782 24.5836L8.74494 24.577ZM158.502 69.0841C164.539 69.0841 169.433 73.9935 169.433 80.0496C169.433 86.1057 164.539 91.0151 158.502 91.0151C152.465 91.0151 147.571 86.1057 147.571 80.0496C147.571 73.9935 152.465 69.0841 158.502 69.0841ZM135.428 70.1404C135.893 70.4095 136.279 70.7966 136.547 71.2627L144.897 85.7708C145.741 87.2373 145.24 89.1126 143.778 89.9593C143.314 90.2284 142.787 90.3701 142.25 90.3701H125.55C123.862 90.3701 122.493 88.9973 122.493 87.3039C122.493 86.7657 122.635 86.2369 122.903 85.7708L131.253 71.2627C132.097 69.7962 133.966 69.2937 135.428 70.1404ZM190.653 69.7291C192.783 69.7291 194.511 71.4619 194.511 73.5993V86.4999C194.511 88.6374 192.783 90.3701 190.653 90.3701H177.792C175.662 90.3701 173.934 88.6374 173.934 86.4999V73.5993C173.934 71.4619 175.662 69.7291 177.792 69.7291H190.653ZM53.1319 120.438C54.5196 120.438 55.6445 121.566 55.6445 122.958V131.36C55.6445 132.752 54.5196 133.88 53.1319 133.88H44.7564C43.3687 133.88 42.2438 132.752 42.2438 131.36V122.958C42.2438 121.566 43.3687 120.438 44.7564 120.438H53.1319ZM48.5915 101.857C52.4868 101.857 55.6445 105.025 55.6445 108.932C55.6445 112.84 52.4868 116.008 48.5915 116.008C44.6962 116.008 41.5385 112.84 41.5385 108.932C41.5385 105.025 44.6962 101.857 48.5915 101.857ZM49.9362 84.2522C50.2379 84.4274 50.4884 84.6795 50.6625 84.9831L56.0836 94.4317C56.6316 95.3869 56.3064 96.6082 55.3573 97.1596C55.0556 97.3349 54.7134 97.4271 54.365 97.4271H43.5229C42.4269 97.4271 41.5385 96.5331 41.5385 95.4302C41.5385 95.0797 41.6302 94.7353 41.8043 94.4317L47.2254 84.9831C47.7734 84.028 48.987 83.7007 49.9362 84.2522Z" fill="#D1D292"/>
</svg>
