<svg width="124" height="125" viewBox="0 0 124 125" fill="none" xmlns="http://www.w3.org/2000/svg">
<path d="M96.4167 1.54077H27.0833C12.7239 1.54077 1.08334 13.2285 1.08334 27.646V97.2601C1.08334 111.678 12.7239 123.365 27.0833 123.365H96.4167C110.776 123.365 122.417 111.678 122.417 97.2601V27.646C122.417 13.2285 110.776 1.54077 96.4167 1.54077Z" stroke="#B4B4B4" stroke-width="2"/>
<path d="M85.4322 104.874C95.6869 104.874 104 96.5274 104 86.2311C104 75.9349 95.6869 67.5881 85.4322 67.5881C75.1774 67.5881 66.8643 75.9349 66.8643 86.2311C66.8643 96.5274 75.1774 104.874 85.4322 104.874Z" stroke="white" stroke-width="2"/>
<path d="M75.6066 76.3657H95.1066V95.9447H75.6066V76.3657Z" fill="white"/>
<path d="M38.0678 104.874C48.3226 104.874 56.6357 96.5274 56.6357 86.2311C56.6357 75.9349 48.3226 67.5881 38.0678 67.5881C27.8131 67.5881 19.5 75.9349 19.5 86.2311C19.5 96.5274 27.8131 104.874 38.0678 104.874Z" fill="#B80000" stroke="black" stroke-opacity="0.15" stroke-width="2"/>
<path d="M38.0678 57.318C48.3226 57.318 56.6357 48.9712 56.6357 38.675C56.6357 28.3787 48.3226 20.032 38.0678 20.032C27.8131 20.032 19.5 28.3787 19.5 38.675C19.5 48.9712 27.8131 57.318 38.0678 57.318Z" fill="#D1D292" stroke="black" stroke-opacity="0.15" stroke-width="2"/>
<path d="M85.4322 57.318C95.6869 57.318 104 48.9712 104 38.675C104 28.3787 95.6869 20.032 85.4322 20.032C75.1774 20.032 66.8643 28.3787 66.8643 38.675C66.8643 48.9712 75.1774 57.318 85.4322 57.318Z" fill="#096634" stroke="black" stroke-opacity="0.15" stroke-width="2"/>
</svg>
