<svg width="33" height="32" viewBox="0 0 33 32" fill="none" xmlns="http://www.w3.org/2000/svg">
<path d="M16.4996 30.9335C24.6033 30.9335 31.1726 24.3604 31.1726 16.2521C31.1726 8.14386 24.6033 1.5708 16.4996 1.5708C8.39588 1.5708 1.82654 8.14386 1.82654 16.2521C1.82654 24.3604 8.39588 30.9335 16.4996 30.9335Z" stroke="white" stroke-width="2"/>
<path d="M10.6655 18.4749C10.6655 21.6988 13.2775 24.3122 16.4996 24.3122C19.7217 24.3122 22.3337 21.6988 22.3337 18.4749" stroke="white" stroke-width="2" stroke-linecap="round"/>
<path d="M22.3336 14.0969C23.1391 14.0969 23.7921 13.4435 23.7921 12.6376C23.7921 11.8316 23.1391 11.1782 22.3336 11.1782C21.5281 11.1782 20.8751 11.8316 20.8751 12.6376C20.8751 13.4435 21.5281 14.0969 22.3336 14.0969Z" fill="white"/>
<path d="M10.6656 14.0969C11.4711 14.0969 12.1241 13.4435 12.1241 12.6376C12.1241 11.8316 11.4711 11.1782 10.6656 11.1782C9.86004 11.1782 9.20703 11.8316 9.20703 12.6376C9.20703 13.4435 9.86004 14.0969 10.6656 14.0969Z" fill="white"/>
</svg>
