<svg width="325" height="488" viewBox="0 0 325 488" fill="none" xmlns="http://www.w3.org/2000/svg">
<path d="M0 0H325V488H0V0Z" fill="#06243E"/>
<path d="M162.284 302.562V321.613C162.284 322.388 162.592 323.131 163.139 323.679C163.687 324.227 164.429 324.535 165.204 324.535C165.978 324.535 166.721 324.227 167.268 323.679C167.816 323.131 168.123 322.388 168.123 321.613V280.914C168.123 280.139 168.431 279.395 168.978 278.847C169.526 278.299 170.269 277.991 171.043 277.991C171.817 277.991 172.56 278.299 173.107 278.847C173.655 279.395 173.963 280.139 173.963 280.914V316.2C173.972 316.969 174.284 317.703 174.83 318.243C175.377 318.784 176.114 319.087 176.882 319.087C177.65 319.087 178.387 318.784 178.933 318.243C179.48 317.703 179.792 316.969 179.801 316.2V283.079C179.801 282.304 180.109 281.56 180.656 281.012C181.204 280.464 181.946 280.156 182.721 280.156C183.495 280.156 184.238 280.464 184.785 281.012C185.333 281.56 185.64 282.304 185.64 283.079V318.365C185.64 319.14 185.948 319.884 186.496 320.432C187.043 320.98 187.786 321.288 188.56 321.288C189.334 321.288 190.077 320.98 190.624 320.432C191.172 319.884 191.48 319.14 191.48 318.365V275.502C191.48 275.118 191.555 274.738 191.702 274.383C191.849 274.029 192.064 273.706 192.335 273.435C192.606 273.164 192.928 272.948 193.282 272.801C193.636 272.655 194.016 272.579 194.399 272.579C194.783 272.579 195.162 272.655 195.516 272.801C195.871 272.948 196.192 273.164 196.464 273.435C196.735 273.706 196.95 274.029 197.096 274.383C197.243 274.738 197.319 275.118 197.319 275.502V316.2C197.328 316.969 197.64 317.703 198.187 318.243C198.733 318.784 199.47 319.087 200.238 319.087C201.006 319.087 201.743 318.784 202.29 318.243C202.836 317.703 203.148 316.969 203.157 316.2V287.408C203.157 286.633 203.465 285.89 204.013 285.342C204.56 284.794 205.303 284.486 206.077 284.486C206.851 284.486 207.594 284.794 208.141 285.342C208.689 285.89 208.997 286.633 208.997 287.408V323.777C208.997 324.553 209.304 325.296 209.852 325.844C210.399 326.392 211.142 326.7 211.916 326.7C212.691 326.7 213.433 326.392 213.981 325.844C214.528 325.296 214.836 324.553 214.836 323.777V280.914C214.836 280.53 214.911 280.15 215.058 279.795C215.205 279.441 215.42 279.119 215.691 278.847C215.962 278.576 216.284 278.361 216.638 278.214C216.992 278.067 217.372 277.991 217.755 277.991C218.139 277.991 218.518 278.067 218.873 278.214C219.227 278.361 219.549 278.576 219.82 278.847C220.091 279.119 220.306 279.441 220.453 279.795C220.599 280.15 220.675 280.53 220.675 280.914V312.953C220.67 313.34 220.742 313.724 220.887 314.083C221.031 314.442 221.245 314.768 221.517 315.043C221.789 315.319 222.112 315.537 222.469 315.686C222.825 315.835 223.208 315.912 223.594 315.912C223.981 315.912 224.363 315.835 224.72 315.686C225.077 315.537 225.4 315.319 225.672 315.043C225.943 314.768 226.157 314.442 226.302 314.083C226.447 313.724 226.518 313.34 226.514 312.953V302.562C226.514 301.787 226.821 301.044 227.369 300.496C227.916 299.947 228.659 299.64 229.433 299.64C230.208 299.64 230.95 299.947 231.498 300.496C232.045 301.044 232.353 301.787 232.353 302.562V323.777C232.353 324.553 232.66 325.296 233.208 325.844C233.755 326.392 234.498 326.7 235.272 326.7C236.047 326.7 236.789 326.392 237.337 325.844C237.884 325.296 238.192 324.553 238.192 323.777V280.914C238.192 280.139 238.5 279.395 239.047 278.847C239.595 278.299 240.337 277.991 241.112 277.991C241.886 277.991 242.629 278.299 243.176 278.847C243.724 279.395 244.031 280.139 244.031 280.914V309.706C244.026 310.093 244.098 310.477 244.243 310.835C244.387 311.194 244.602 311.521 244.873 311.796C245.145 312.071 245.468 312.29 245.825 312.439C246.181 312.588 246.564 312.665 246.951 312.665C247.337 312.665 247.72 312.588 248.076 312.439C248.433 312.29 248.756 312.071 249.028 311.796C249.299 311.521 249.514 311.194 249.658 310.835C249.803 310.477 249.875 310.093 249.87 309.706V279.832C249.87 279.057 250.177 278.313 250.725 277.765C251.273 277.217 252.015 276.909 252.789 276.909C253.564 276.909 254.306 277.217 254.854 277.765C255.401 278.313 255.709 279.057 255.709 279.832V321.613C255.709 322.388 256.017 323.132 256.564 323.68C257.112 324.228 257.854 324.536 258.629 324.536C259.403 324.536 260.146 324.228 260.693 323.68C261.241 323.132 261.548 322.388 261.548 321.613V280.914C261.548 280.139 261.856 279.396 262.403 278.848C262.951 278.3 263.693 277.992 264.468 277.992C265.242 277.992 265.985 278.3 266.532 278.848C267.08 279.396 267.387 280.139 267.387 280.914V314.036C267.387 314.811 267.695 315.554 268.243 316.102C268.79 316.65 269.533 316.958 270.307 316.958C271.081 316.958 271.824 316.65 272.371 316.102C272.919 315.554 273.227 314.811 273.227 314.036V283.079C273.222 282.692 273.294 282.308 273.438 281.949C273.583 281.59 273.797 281.264 274.069 280.989C274.34 280.713 274.664 280.495 275.02 280.346C275.377 280.197 275.759 280.12 276.146 280.12C276.532 280.12 276.915 280.197 277.272 280.346C277.628 280.495 277.952 280.713 278.223 280.989C278.495 281.264 278.709 281.59 278.854 281.949C278.998 282.308 279.07 282.692 279.065 283.079V307.541C279.065 308.316 279.373 309.06 279.92 309.608C280.468 310.156 281.211 310.464 281.985 310.464C282.759 310.464 283.502 310.156 284.049 309.608C284.597 309.06 284.904 308.316 284.904 307.541V293.903C284.904 293.128 285.212 292.384 285.76 291.836C286.307 291.288 287.05 290.98 287.824 290.98C288.598 290.98 289.341 291.288 289.888 291.836C290.436 292.384 290.744 293.128 290.744 293.903V318.365C290.744 319.14 291.051 319.884 291.599 320.432C292.146 320.98 292.889 321.288 293.663 321.288C294.438 321.288 295.18 320.98 295.728 320.432C296.275 319.884 296.583 319.14 296.583 318.365V288.491C296.578 288.104 296.65 287.72 296.794 287.361C296.939 287.002 297.153 286.676 297.425 286.401C297.696 286.125 298.02 285.907 298.376 285.758C298.733 285.608 299.116 285.532 299.502 285.532C299.889 285.532 300.271 285.608 300.628 285.758C300.984 285.907 301.308 286.125 301.579 286.401C301.851 286.676 302.065 287.002 302.21 287.361C302.354 287.72 302.426 288.104 302.421 288.491V319.448C302.421 320.223 302.729 320.966 303.277 321.514C303.824 322.062 304.567 322.37 305.341 322.37C306.115 322.37 306.858 322.062 307.406 321.514C307.953 320.966 308.261 320.223 308.261 319.448V280.914C308.261 280.139 308.568 279.395 309.116 278.847C309.663 278.299 310.406 277.991 311.18 277.991C311.955 277.991 312.697 278.299 313.245 278.847C313.792 279.395 314.1 280.139 314.1 280.914V296.717C314.1 297.492 314.407 298.235 314.955 298.784C315.502 299.332 316.245 299.64 317.019 299.64C317.794 299.64 318.536 299.332 319.084 298.784C319.631 298.235 319.939 297.492 319.939 296.717V274.419C319.949 273.651 320.26 272.917 320.807 272.376C321.353 271.836 322.09 271.533 322.858 271.533C323.626 271.533 324.363 271.836 324.91 272.376C325.456 272.917 325.768 273.651 325.778 274.419V321.613C325.778 322.388 326.085 323.131 326.633 323.679C327.18 324.227 327.923 324.535 328.697 324.535C329.472 324.535 330.214 324.227 330.762 323.679C331.309 323.131 331.617 322.388 331.617 321.613V276.584C331.617 275.809 331.924 275.066 332.472 274.518C333.02 273.97 333.762 273.662 334.536 273.662C335.311 273.662 336.053 273.97 336.601 274.518C337.148 275.066 337.456 275.809 337.456 276.584V316.2C337.456 316.975 337.764 317.719 338.311 318.267C338.859 318.815 339.601 319.123 340.376 319.123C341.15 319.123 341.893 318.815 342.44 318.267C342.988 317.719 343.295 316.975 343.295 316.2V280.914C343.29 280.527 343.362 280.143 343.507 279.784C343.651 279.426 343.866 279.099 344.137 278.824C344.409 278.549 344.732 278.33 345.089 278.181C345.445 278.032 345.828 277.955 346.215 277.955C346.601 277.955 346.984 278.032 347.34 278.181C347.697 278.33 348.02 278.549 348.292 278.824C348.563 279.099 348.778 279.426 348.922 279.784C349.067 280.143 349.139 280.527 349.134 280.914V316.2C349.134 316.975 349.442 317.719 349.989 318.267C350.537 318.815 351.279 319.123 352.054 319.123C352.828 319.123 353.57 318.815 354.118 318.267C354.665 317.719 354.973 316.975 354.973 316.2V289.573C354.973 288.798 355.281 288.054 355.828 287.506C356.376 286.958 357.118 286.65 357.893 286.65C358.667 286.65 359.41 286.958 359.957 287.506C360.505 288.054 360.812 288.798 360.812 289.573V296.717C360.812 297.492 361.12 298.235 361.667 298.784C362.215 299.332 362.958 299.64 363.732 299.64C364.506 299.64 365.249 299.332 365.796 298.784C366.344 298.235 366.651 297.492 366.651 296.717V291.738C366.651 290.962 366.959 290.219 367.507 289.671C368.054 289.123 368.797 288.815 369.571 288.815C370.345 288.815 371.088 289.123 371.635 289.671C372.183 290.219 372.491 290.962 372.491 291.738V318.365C372.5 319.134 372.812 319.868 373.358 320.408C373.905 320.948 374.642 321.251 375.41 321.251C376.178 321.251 376.915 320.948 377.462 320.408C378.008 319.868 378.32 319.134 378.329 318.365V280.914C378.329 280.139 378.637 279.395 379.184 278.847C379.732 278.299 380.475 277.991 381.249 277.991C382.023 277.991 382.766 278.299 383.313 278.847C383.861 279.395 384.168 280.139 384.168 280.914V309.706C384.168 310.481 384.476 311.224 385.024 311.772C385.571 312.321 386.314 312.628 387.088 312.628C387.862 312.628 388.605 312.321 389.153 311.772C389.7 311.224 390.008 310.481 390.008 309.706V302.562C390.008 301.787 390.315 301.044 390.863 300.496C391.41 299.947 392.153 299.64 392.927 299.64H395.847" stroke="#C1C1C1" stroke-width="5"/>
<path d="M-71.2784 302.604V318.407C-71.2784 319.183 -70.9708 319.926 -70.4233 320.474C-69.8757 321.022 -69.1331 321.33 -68.3588 321.33C-67.5845 321.33 -66.8419 321.022 -66.2943 320.474C-65.7468 319.926 -65.4392 319.183 -65.4392 318.407V283.121C-65.4392 282.346 -65.1316 281.603 -64.5841 281.054C-64.0366 280.506 -63.294 280.198 -62.5196 280.198C-61.7453 280.198 -61.0027 280.506 -60.4552 281.054C-59.9076 281.603 -59.6001 282.346 -59.6001 283.121V318.407C-59.6001 319.183 -59.2924 319.926 -58.7449 320.474C-58.1974 321.022 -57.4548 321.33 -56.6805 321.33C-55.9061 321.33 -55.1635 321.022 -54.616 320.474C-54.0685 319.926 -53.7609 319.183 -53.7609 318.407V279.874C-53.7609 279.098 -53.4533 278.355 -52.9058 277.807C-52.3582 277.259 -51.6156 276.951 -50.8413 276.951C-50.067 276.951 -49.3244 277.259 -48.7768 277.807C-48.2293 278.355 -47.9217 279.098 -47.9217 279.874V320.572C-47.9265 320.959 -47.8546 321.343 -47.71 321.702C-47.5654 322.061 -47.3512 322.387 -47.0796 322.662C-46.808 322.938 -46.4846 323.156 -46.128 323.305C-45.7714 323.454 -45.3888 323.531 -45.0024 323.531C-44.6159 323.531 -44.2333 323.454 -43.8767 323.305C-43.5201 323.156 -43.1967 322.938 -42.9251 322.662C-42.6535 322.387 -42.4393 322.061 -42.2947 321.702C-42.1502 321.343 -42.0782 320.959 -42.083 320.572V282.038C-42.083 281.263 -41.7754 280.52 -41.2279 279.972C-40.6803 279.424 -39.9377 279.116 -39.1634 279.116C-38.3891 279.116 -37.6465 279.424 -37.099 279.972C-36.5514 280.52 -36.2438 281.263 -36.2438 282.038V320.572C-36.2438 321.347 -35.9362 322.091 -35.3887 322.639C-34.8412 323.187 -34.0986 323.495 -33.3242 323.495C-32.5499 323.495 -31.8073 323.187 -31.2598 322.639C-30.7123 322.091 -30.4047 321.347 -30.4047 320.572V277.709C-30.4047 276.934 -30.0971 276.19 -29.5495 275.642C-29.002 275.094 -28.2594 274.786 -27.4851 274.786C-26.7108 274.786 -25.9682 275.094 -25.4206 275.642C-24.8731 276.19 -24.5655 276.934 -24.5655 277.709V320.572C-24.5559 321.341 -24.2442 322.075 -23.6977 322.615C-23.1513 323.156 -22.4142 323.459 -21.6461 323.459C-20.8781 323.459 -20.141 323.156 -19.5946 322.615C-19.0481 322.075 -18.7363 321.341 -18.7268 320.572V277.709C-18.7268 276.934 -18.4192 276.19 -17.8717 275.642C-17.3241 275.094 -16.5815 274.786 -15.8072 274.786C-15.0329 274.786 -14.2903 275.094 -13.7427 275.642C-13.1952 276.19 -12.8876 276.934 -12.8876 277.709V320.572C-12.8876 321.347 -12.58 322.091 -12.0325 322.639C-11.485 323.187 -10.7424 323.495 -9.96804 323.495C-9.19372 323.495 -8.4511 323.187 -7.90358 322.639C-7.35605 322.091 -7.04845 321.347 -7.04845 320.572V285.286C-7.04845 284.511 -6.74085 283.767 -6.19332 283.219C-5.6458 282.671 -4.90319 282.363 -4.12887 282.363C-3.35455 282.363 -2.61194 282.671 -2.06441 283.219C-1.51689 283.767 -1.20929 284.511 -1.20929 285.286V315.16C-1.21409 315.547 -1.14213 315.931 -0.997573 316.29C-0.853017 316.649 -0.638745 316.975 -0.367181 317.251C-0.0956163 317.526 0.227836 317.744 0.584417 317.893C0.940998 318.043 1.32361 318.119 1.71007 318.119C2.09653 318.119 2.47915 318.043 2.83573 317.893C3.19231 317.744 3.51576 317.526 3.78732 317.251C4.05889 316.975 4.27316 316.649 4.41772 316.29C4.56227 315.931 4.63423 315.547 4.62943 315.16V278.791C4.62943 278.408 4.70495 278.028 4.85167 277.673C4.9984 277.318 5.21345 276.996 5.48456 276.725C5.75567 276.453 6.07752 276.238 6.43174 276.091C6.78596 275.944 7.16561 275.869 7.54901 275.869C7.93242 275.869 8.31207 275.944 8.66629 276.091C9.02051 276.238 9.34236 276.453 9.61347 276.725C9.88458 276.996 10.0996 277.318 10.2464 277.673C10.3931 278.028 10.4686 278.408 10.4686 278.791V314.077C10.4686 314.853 10.7762 315.596 11.3237 316.144C11.8712 316.692 12.6139 317 13.3882 317C14.1625 317 14.9051 316.692 15.4526 316.144C16.0002 315.596 16.3078 314.853 16.3078 314.077V284.203C16.3078 283.428 16.6154 282.684 17.1629 282.136C17.7104 281.588 18.453 281.28 19.2274 281.28C20.0017 281.28 20.7443 281.588 21.2918 282.136C21.8393 282.684 22.1469 283.428 22.1469 284.203V322.737C22.1565 323.505 22.4683 324.24 23.0147 324.78C23.5612 325.32 24.2983 325.623 25.0663 325.623C25.8343 325.623 26.5714 325.32 27.1179 324.78C27.6643 324.24 27.9761 323.505 27.9856 322.737V286.368C27.9856 285.592 28.2932 284.849 28.8408 284.301C29.3883 283.753 30.1309 283.445 30.9052 283.445C31.6796 283.445 32.4222 283.753 32.9697 284.301C33.5172 284.849 33.8248 285.592 33.8248 286.368V312.995C33.8248 313.77 34.1324 314.514 34.6799 315.062C35.2275 315.61 35.9701 315.918 36.7444 315.918C37.5187 315.918 38.2613 315.61 38.8089 315.062C39.3564 314.514 39.664 313.77 39.664 312.995V302.604C39.664 301.829 39.9716 301.085 40.5191 300.537C41.0666 299.989 41.8092 299.681 42.5836 299.681C43.3579 299.681 44.1005 299.989 44.648 300.537C45.1955 301.085 45.5031 301.829 45.5031 302.604V321.654C45.5127 322.423 45.8245 323.157 46.3709 323.697C46.9174 324.237 47.6545 324.54 48.4225 324.54C49.1905 324.54 49.9276 324.237 50.4741 323.697C51.0205 323.157 51.3323 322.423 51.3419 321.654V279.874C51.3419 279.099 51.6495 278.356 52.197 277.807C52.7445 277.259 53.4871 276.951 54.2614 276.951C55.0358 276.951 55.7784 277.259 56.3259 277.807C56.8734 278.356 57.181 279.099 57.181 279.874V296.76C57.181 297.535 57.4886 298.278 58.0362 298.826C58.5837 299.374 59.3263 299.682 60.1006 299.682C60.8749 299.682 61.6175 299.374 62.1651 298.826C62.7126 298.278 63.0202 297.535 63.0202 296.76V278.792C63.0202 278.017 63.3278 277.273 63.8753 276.725C64.4228 276.177 65.1655 275.869 65.9398 275.869C66.7141 275.869 67.4567 276.177 68.0042 276.725C68.5518 277.273 68.8594 278.017 68.8594 278.792V318.408C68.8594 319.183 69.167 319.926 69.7145 320.475C70.262 321.023 71.0046 321.331 71.7789 321.331C72.5533 321.331 73.2959 321.023 73.8434 320.475C74.3909 319.926 74.6985 319.183 74.6985 318.408V289.616C74.7081 288.847 75.0199 288.113 75.5663 287.573C76.1127 287.033 76.8498 286.73 77.6179 286.73C78.3859 286.73 79.123 287.033 79.6695 287.573C80.2159 288.113 80.5277 288.847 80.5373 289.616V296.76C80.5373 297.535 80.8448 298.278 81.3924 298.826C81.9399 299.374 82.6825 299.682 83.4568 299.682C84.2312 299.682 84.9738 299.374 85.5213 298.826C86.0688 298.278 86.3764 297.535 86.3764 296.76V278.792C86.3764 278.017 86.684 277.273 87.2315 276.725C87.7791 276.177 88.5217 275.869 89.296 275.869C90.0703 275.869 90.8129 276.177 91.3604 276.725C91.908 277.273 92.2156 278.017 92.2156 278.792V314.077C92.2156 314.461 92.2911 314.841 92.4378 315.196C92.5845 315.55 92.7996 315.873 93.0707 316.144C93.3418 316.415 93.6637 316.631 94.0179 316.778C94.3721 316.924 94.7517 317 95.1352 317C95.5186 317 95.8982 316.924 96.2524 316.778C96.6067 316.631 96.9285 316.415 97.1996 316.144C97.4707 315.873 97.6858 315.55 97.8325 315.196C97.9792 314.841 98.0547 314.461 98.0547 314.077V302.605C98.0499 302.218 98.1219 301.834 98.2665 301.475C98.411 301.117 98.6253 300.79 98.8969 300.515C99.1684 300.24 99.4919 300.021 99.8485 299.872C100.205 299.723 100.588 299.646 100.974 299.646C101.361 299.646 101.743 299.723 102.1 299.872C102.456 300.021 102.78 300.24 103.051 300.515C103.323 300.79 103.537 301.117 103.682 301.475C103.826 301.834 103.898 302.218 103.893 302.605V312.996C103.893 313.771 104.201 314.515 104.749 315.063C105.296 315.611 106.039 315.919 106.813 315.919C107.587 315.919 108.33 315.611 108.878 315.063C109.425 314.515 109.733 313.771 109.733 312.996V302.605C109.733 301.83 110.04 301.086 110.588 300.538C111.135 299.99 111.878 299.682 112.652 299.682C113.427 299.682 114.169 299.99 114.717 300.538C115.264 301.086 115.572 301.83 115.572 302.605V317.326C115.572 318.101 115.879 318.844 116.427 319.392C116.974 319.94 117.717 320.248 118.491 320.248C119.266 320.248 120.008 319.94 120.556 319.392C121.103 318.844 121.411 318.101 121.411 317.326V279.874C121.406 279.487 121.478 279.103 121.623 278.744C121.767 278.385 121.982 278.059 122.253 277.784C122.525 277.508 122.848 277.29 123.205 277.141C123.561 276.991 123.944 276.915 124.33 276.915C124.717 276.915 125.099 276.991 125.456 277.141C125.813 277.29 126.136 277.508 126.408 277.784C126.679 278.059 126.893 278.385 127.038 278.744C127.183 279.103 127.254 279.487 127.25 279.874V302.172C127.25 302.947 127.557 303.69 128.105 304.238C128.652 304.786 129.395 305.094 130.169 305.094C130.944 305.094 131.686 304.786 132.234 304.238C132.781 303.69 133.089 302.947 133.089 302.172V284.203C133.089 283.428 133.396 282.685 133.944 282.137C134.491 281.589 135.234 281.281 136.008 281.281C136.783 281.281 137.525 281.589 138.073 282.137C138.62 282.685 138.928 283.428 138.928 284.203V319.49C138.928 320.265 139.236 321.009 139.783 321.557C140.331 322.105 141.073 322.413 141.848 322.413C142.622 322.413 143.365 322.105 143.912 321.557C144.46 321.009 144.767 320.265 144.767 319.49V280.956C144.762 280.569 144.834 280.185 144.979 279.827C145.123 279.468 145.338 279.141 145.609 278.866C145.881 278.591 146.204 278.372 146.561 278.223C146.917 278.074 147.3 277.997 147.687 277.997C148.073 277.997 148.456 278.074 148.812 278.223C149.169 278.372 149.492 278.591 149.764 278.866C150.035 279.141 150.25 279.468 150.394 279.827C150.539 280.185 150.611 280.569 150.606 280.956V314.077C150.606 314.853 150.913 315.596 151.461 316.144C152.009 316.692 152.751 317 153.525 317C154.3 317 155.042 316.692 155.59 316.144C156.137 315.596 156.445 314.853 156.445 314.077V302.605C156.445 301.83 156.753 301.086 157.3 300.538C157.848 299.99 158.59 299.682 159.365 299.682C160.139 299.682 160.882 299.99 161.429 300.538C161.977 301.086 162.284 301.83 162.284 302.605V321.655" stroke="#308CE9" stroke-width="5"/>
<path d="M163.429 260.606C163.429 259.886 162.846 259.302 162.127 259.302C161.407 259.302 160.824 259.886 160.824 260.606V340.586C160.824 341.306 161.407 341.89 162.127 341.89C162.846 341.89 163.429 341.306 163.429 340.586V260.606Z" fill="#E6375A"/>
<path d="M183.095 227.789H141.158C136.671 227.789 133.033 231.43 133.033 235.922V250.951C133.033 255.443 136.671 259.085 141.158 259.085H183.095C187.582 259.085 191.22 255.443 191.22 250.951V235.922C191.22 231.43 187.582 227.789 183.095 227.789Z" fill="#E6375A"/>
<path d="M148.113 248.69H146.692V239.568L144.544 239.597V238.573L148.113 238.183V248.69L148.113 248.69ZM158.841 240.926C158.841 241.474 158.688 241.954 158.38 242.365C158.072 242.777 157.657 243.083 157.133 243.285C157.738 243.497 158.223 243.829 158.586 244.281C158.948 244.733 159.13 245.255 159.13 245.847C159.13 246.818 158.814 247.561 158.182 248.073C157.55 248.586 156.729 248.842 155.72 248.842C154.691 248.842 153.864 248.586 153.237 248.074C152.609 247.561 152.296 246.819 152.296 245.847C152.296 245.255 152.474 244.734 152.829 244.281C153.185 243.829 153.665 243.497 154.271 243.285C153.747 243.083 153.336 242.777 153.038 242.365C152.741 241.954 152.592 241.474 152.592 240.926C152.592 240.002 152.876 239.289 153.446 238.786C154.015 238.283 154.768 238.032 155.706 238.032C156.628 238.032 157.382 238.283 157.965 238.786C158.549 239.289 158.841 240.002 158.841 240.926H158.841ZM157.717 245.818C157.717 245.241 157.527 244.767 157.147 244.396C156.768 244.026 156.287 243.84 155.706 243.84C155.114 243.84 154.635 244.026 154.268 244.396C153.9 244.767 153.716 245.241 153.716 245.818C153.716 246.414 153.898 246.882 154.264 247.221C154.629 247.56 155.114 247.73 155.72 247.73C156.311 247.73 156.792 247.559 157.162 247.218C157.532 246.876 157.717 246.409 157.717 245.818H157.717ZM157.421 240.954C157.421 240.434 157.259 240.004 156.935 239.662C156.61 239.321 156.2 239.15 155.706 239.15C155.201 239.15 154.793 239.315 154.48 239.644C154.168 239.974 154.012 240.41 154.012 240.954C154.012 241.488 154.169 241.916 154.484 242.238C154.798 242.561 155.211 242.722 155.72 242.722C156.22 242.722 156.628 242.561 156.946 242.238C157.263 241.916 157.421 241.488 157.421 240.954ZM162.498 248.69H161.078V247.232H162.498V248.69V248.69ZM162.498 242.368H161.078V240.911H162.498V242.369V242.368ZM171.186 244.685C171.186 246.027 170.889 247.055 170.295 247.77C169.702 248.484 168.889 248.841 167.855 248.841C166.822 248.841 166.005 248.483 165.404 247.766C164.804 247.049 164.503 246.022 164.503 244.685V242.195C164.503 240.858 164.803 239.83 165.401 239.11C165.999 238.391 166.813 238.031 167.841 238.031C168.875 238.031 169.69 238.391 170.288 239.11C170.887 239.83 171.186 240.858 171.186 242.195V244.685ZM169.766 241.892C169.766 240.983 169.601 240.299 169.272 239.839C168.943 239.38 168.466 239.15 167.841 239.15C167.216 239.15 166.74 239.38 166.414 239.839C166.087 240.299 165.923 240.983 165.923 241.892V244.974C165.923 245.883 166.089 246.569 166.421 247.034C166.753 247.498 167.231 247.73 167.855 247.73C168.48 247.73 168.955 247.499 169.279 247.037C169.604 246.575 169.766 245.888 169.766 244.974V241.892V241.892ZM179.708 248.69H172.903V247.716L176.342 243.891C176.957 243.203 177.374 242.657 177.592 242.253C177.811 241.849 177.92 241.435 177.92 241.012C177.92 240.488 177.768 240.046 177.463 239.688C177.158 239.329 176.753 239.15 176.248 239.15C175.522 239.15 174.988 239.336 174.644 239.709C174.3 240.082 174.129 240.605 174.129 241.279H172.766L172.752 241.235C172.728 240.331 173.028 239.571 173.653 238.955C174.278 238.339 175.143 238.031 176.248 238.031C177.19 238.031 177.941 238.307 178.5 238.858C179.061 239.409 179.34 240.109 179.34 240.961C179.34 241.534 179.171 242.107 178.832 242.683C178.522 243.209 178.097 243.772 177.558 244.369L174.648 247.542L174.662 247.578H179.708V248.69Z" fill="white"/>
<path d="M162.126 254.167L167.002 259.084L162.126 264.002L157.251 259.084L162.126 254.167Z" fill="#E6375A"/>
<path d="M83.5299 156.674V199.148H41.0994V156.674H83.5299ZM277.236 168.632C278.28 168.632 279.31 168.835 280.34 169.242C281.356 169.649 282.255 170.229 283.024 171.013L280.935 173.555C280.34 173.09 279.76 172.742 279.165 172.495C278.57 172.248 277.932 172.117 277.206 172.117C276.51 172.117 275.959 172.263 275.539 172.538C275.132 172.829 274.915 173.221 274.915 173.744C274.915 174.02 274.987 174.252 275.118 174.441C275.249 174.63 275.452 174.804 275.698 174.963C275.945 175.123 276.235 175.268 276.569 175.399C276.902 175.545 277.265 175.69 277.642 175.849L279.963 176.793C281.065 177.229 281.936 177.839 282.574 178.608C283.212 179.378 283.531 180.409 283.531 181.672C283.531 182.427 283.387 183.139 283.082 183.807C282.774 184.485 282.324 185.089 281.762 185.578C281.181 186.087 280.471 186.493 279.629 186.798C278.759 187.118 277.801 187.263 276.742 187.263C275.567 187.263 274.392 187.045 273.232 186.61C272.068 186.177 271.003 185.515 270.099 184.663L272.42 181.875C273.06 182.429 273.779 182.884 274.552 183.226C275.335 183.574 276.104 183.749 276.859 183.749C277.7 183.749 278.338 183.589 278.744 183.284C279.165 182.964 279.368 182.543 279.368 182.021C279.368 181.745 279.31 181.513 279.194 181.309C279.078 181.106 278.904 180.932 278.672 180.772C278.413 180.598 278.135 180.452 277.845 180.336C277.526 180.191 277.164 180.046 276.786 179.886L274.451 178.899C273.983 178.708 273.535 178.469 273.116 178.187C272.681 177.897 272.303 177.548 271.956 177.156C271.61 176.745 271.335 176.279 271.143 175.777C270.94 175.254 270.839 174.658 270.839 173.991C270.839 173.25 270.998 172.567 271.303 171.914C271.622 171.259 272.072 170.676 272.623 170.201C273.189 169.707 273.87 169.329 274.654 169.053C275.437 168.778 276.293 168.632 277.236 168.632ZM214.323 168.589C215.483 168.589 216.513 168.821 217.442 169.286C218.355 169.75 219.124 170.303 219.733 170.927L217.572 173.555C217.108 173.134 216.629 172.786 216.121 172.524C215.614 172.263 215.048 172.117 214.395 172.117C213.786 172.117 213.22 172.248 212.669 172.524C212.132 172.786 211.653 173.177 211.262 173.671C210.87 174.165 210.551 174.775 210.319 175.486C210.087 176.198 209.971 177.011 209.971 177.911C209.971 179.77 210.363 181.208 211.16 182.224C211.944 183.24 213.003 183.749 214.337 183.749C215.077 183.749 215.73 183.589 216.31 183.27C216.881 182.955 217.395 182.548 217.833 182.064L219.98 184.606C218.486 186.392 216.542 187.262 214.178 187.262C213.031 187.262 211.958 187.06 210.957 186.667C209.953 186.285 209.047 185.685 208.303 184.911C207.534 184.141 206.939 183.182 206.504 182.021C206.068 180.873 205.836 179.538 205.836 178.027C205.836 176.532 206.068 175.21 206.533 174.034C206.997 172.873 207.606 171.871 208.375 171.072C209.131 170.27 210.051 169.641 211.073 169.228C212.104 168.805 213.208 168.587 214.323 168.589ZM54.8893 168.708H50.6462V187.114H54.8893V168.708V168.708ZM63.3754 168.708H59.1324V187.114H63.3754V180.035H69.74V187.114H73.983V168.708H69.74V175.787H63.3754V168.708V168.708ZM163.217 168.952V172.379H156.022V175.995H162.144V179.393H156.023V183.531H163.493V186.958H151.975V168.952H163.218H163.217ZM250.893 168.952V172.379H243.698V175.995H249.819V179.393H243.698V183.531H251.168V186.958H239.65V168.952H250.893ZM261.235 168.952C262.193 168.952 263.092 169.039 263.919 169.228C264.76 169.417 265.486 169.722 266.109 170.157C266.733 170.593 267.227 171.159 267.604 171.885C267.966 172.597 268.155 173.497 268.155 174.557C268.155 175.878 267.865 176.967 267.284 177.824C266.704 178.681 265.936 179.32 264.949 179.741L269.025 186.943H264.485L261.032 180.467H258.798V186.943H254.751V168.952H261.235ZM103.597 168.952V186.943H99.5497V168.952H103.597ZM226.769 168.952V176.314H226.885L232.238 168.952H236.706L231.266 176.125L237.692 186.943H233.253L228.872 179.364L226.783 182.122V186.943H222.722V168.952H226.769ZM112.01 168.952L116.696 177.897L118.466 181.875H118.582C118.495 180.918 118.378 179.857 118.262 178.681C118.149 177.561 118.091 176.437 118.089 175.312V168.952H121.947V186.944H117.784L113.084 177.97L111.314 174.049H111.198C111.285 175.037 111.401 176.111 111.517 177.244C111.633 178.391 111.691 179.495 111.691 180.555V186.929H107.847V168.952H112.01V168.952ZM131.246 168.952C132.624 168.952 133.872 169.126 134.974 169.474C136.076 169.823 137.019 170.36 137.817 171.087C138.6 171.812 139.21 172.742 139.63 173.86C140.051 174.978 140.269 176.314 140.269 177.868C140.269 179.407 140.051 180.758 139.63 181.89C139.21 183.038 138.615 183.967 137.846 184.722C137.077 185.477 136.149 186.028 135.075 186.392C134.002 186.755 132.798 186.943 131.478 186.943H126.169V168.952H131.246V168.952ZM147.725 168.952V186.943H143.677V168.952H147.725ZM176.636 168.952V175.878H182.844V168.952H186.92V186.943H182.844V179.436H176.636V186.943H172.588V168.952H176.636ZM199.367 168.952L204.995 186.943H200.701L199.599 182.66H194.116L193.013 186.943H188.879L194.493 168.952H199.367ZM130.999 172.219H130.23V183.647H130.999C131.768 183.647 132.464 183.545 133.088 183.342C133.712 183.139 134.248 182.819 134.684 182.369C135.119 181.919 135.467 181.324 135.714 180.583C135.96 179.843 136.091 178.942 136.091 177.853C136.091 176.793 135.96 175.893 135.714 175.167C135.467 174.441 135.119 173.86 134.684 173.424C134.248 172.988 133.712 172.683 133.088 172.495C132.464 172.306 131.768 172.219 130.999 172.219L130.999 172.219ZM196.901 172.045H196.785C196.567 173.003 196.335 173.976 196.103 174.978C195.894 175.939 195.652 176.894 195.377 177.839L194.942 179.494H198.772L198.351 177.839C198.077 176.888 197.83 175.929 197.611 174.963C197.379 173.947 197.133 172.974 196.901 172.045V172.045ZM260.887 172.176H258.798V177.229H260.887C261.946 177.229 262.759 177.011 263.324 176.546C263.89 176.096 264.166 175.428 264.166 174.542C264.166 173.657 263.89 173.047 263.324 172.698C262.759 172.35 261.946 172.176 260.887 172.176Z" fill="white"/>
</svg>
