<svg width="124" height="125" viewBox="0 0 124 125" fill="none" xmlns="http://www.w3.org/2000/svg">
<path d="M96.6666 1.54102H27.3333C12.9739 1.54102 1.33331 13.2287 1.33331 27.6463V97.2603C1.33331 111.678 12.9739 123.366 27.3333 123.366H96.6666C111.026 123.366 122.667 111.678 122.667 97.2603V27.6463C122.667 13.2287 111.026 1.54102 96.6666 1.54102Z" stroke="#B4B4B4" stroke-width="2"/>
<path d="M20.2916 105.763H24.8813C27.5906 105.763 30.0157 104.076 30.9672 101.529L39.8061 77.8699C40.6466 75.62 43.1445 74.4803 45.3853 75.3242C46.2858 75.6634 47.0482 76.2936 47.5527 77.1157L56.2405 91.2737C58.1235 94.3424 62.1277 95.2974 65.184 93.4067C66.1827 92.7889 66.9963 91.9113 67.5385 90.8669L71.9752 82.3205C73.9953 78.4292 78.7747 76.919 82.6502 78.9472C83.974 79.64 85.0756 80.6946 85.8278 81.9892L90.224 89.5554C91.7314 92.1498 95.0482 93.026 97.6322 91.5125C97.688 91.4798 97.7432 91.4461 97.7978 91.4114L103.708 87.6586" stroke="#B80000" stroke-width="2" stroke-linecap="round" stroke-linejoin="round"/>
<path d="M22.2412 32.6348C21.8062 34.1598 21.5732 35.7705 21.5732 37.4357C21.5732 47.0474 29.3336 54.8392 38.9066 54.8392C48.4795 54.8392 56.2399 47.0474 56.2399 37.4357C56.2399 27.824 48.4795 20.0322 38.9066 20.0322C37.103 20.0322 35.3638 20.3088 33.7287 20.822" stroke="#096634" stroke-width="2" stroke-linecap="round" stroke-linejoin="round"/>
<path d="M31.1398 45.8256V45.3025C31.1398 42.8996 33.0799 40.9517 35.4731 40.9517H42.3401C44.7333 40.9517 46.6734 42.8996 46.6734 45.3025V45.8256" stroke="#096634" stroke-width="2" stroke-linecap="round" stroke-linejoin="round"/>
<path d="M38.9066 37.0525C41.5875 37.0525 43.7608 34.8704 43.7608 32.1786C43.7608 29.4868 41.5875 27.3047 38.9066 27.3047C36.2256 27.3047 34.0523 29.4868 34.0523 32.1786C34.0523 34.8704 36.2256 37.0525 38.9066 37.0525Z" stroke="#096634" stroke-width="2"/>
<path d="M25.1666 28.7338C27.859 28.7338 30.0416 26.5424 30.0416 23.8391C30.0416 21.1358 27.859 18.9443 25.1666 18.9443C22.4742 18.9443 20.2916 21.1358 20.2916 23.8391C20.2916 26.5424 22.4742 28.7338 25.1666 28.7338Z" fill="#096634"/>
<path d="M74.1917 31.815H76.2388V20.319H74.1996L71.2083 22.4222V24.398L74.0568 22.3904H74.1917V31.815ZM79.3864 23.4681L79.3809 23.7128H81.3011V23.681C81.3011 22.5099 82.1104 21.7212 83.3085 21.7212C84.4352 21.7212 85.2604 22.4541 85.2604 23.4659C85.2604 24.2078 84.9363 24.7704 83.6902 26.0755L79.492 30.3889V31.815H87.4424V30.0703H82.3008V29.9348L84.6971 27.5209C86.641 25.593 87.2679 24.5732 87.2679 23.3384C87.2679 21.4184 85.6334 20.0322 83.372 20.0322C81.1017 20.0322 79.4912 21.4318 79.3864 23.4681ZM91.0368 31.9823C91.7906 31.9823 92.3063 31.4405 92.3063 30.7235C92.3063 29.9986 91.7906 29.4648 91.0368 29.4648C90.2909 29.4648 89.7673 29.9986 89.7673 30.7235C89.7673 31.4405 90.2909 31.9823 91.0368 31.9823ZM98.535 32.1018C96.1625 32.1018 94.5201 30.6518 94.4249 28.6283H96.345C96.472 29.6879 97.3686 30.3889 98.5508 30.3889C99.8918 30.3889 100.804 29.4807 100.804 28.1105C100.804 26.7322 99.8838 25.8001 98.5667 25.8001C97.6225 25.8001 96.8846 26.2223 96.464 26.9314H94.6074L95.2024 20.319H102.098V22.0558H96.7894L96.5117 25.2823H96.6465C97.1544 24.5971 97.9637 24.2068 99.0666 24.2068C101.241 24.2068 102.78 25.8081 102.78 28.0627C102.78 30.4606 101.074 32.1018 98.535 32.1018ZM94.0937 49.451H96.0932C96.2202 50.4787 97.2358 51.1399 98.6878 51.1399C100.037 51.1399 101.013 50.4468 101.013 49.4828C101.013 48.6543 100.386 48.1683 98.9179 47.8258L97.4342 47.4832C95.3553 47.0132 94.3794 45.9775 94.3794 44.2646C94.3794 42.1774 96.0774 40.7912 98.6402 40.7912C101.044 40.7912 102.782 42.1774 102.877 44.1531H100.917C100.775 43.1413 99.886 42.504 98.6323 42.504C97.3152 42.504 96.4424 43.1413 96.4424 44.1212C96.4424 44.894 97.0216 45.3481 98.4419 45.6747L99.759 45.9775C102.084 46.5033 103.06 47.4752 103.06 49.2279C103.06 51.4665 101.338 52.8607 98.5609 52.8607C95.9345 52.8607 94.1969 51.5382 94.0937 49.451ZM76.0136 41.078V52.5739H78.0607V48.8057H80.5443C82.8612 48.8057 84.4798 47.2442 84.4798 44.9657C84.4798 42.6474 82.9167 41.078 80.6315 41.078H76.0136ZM78.0607 42.7988H80.092C81.5678 42.7988 82.4009 43.5556 82.4009 44.9657C82.4009 46.336 81.544 47.1008 80.0841 47.1008H78.0607V42.7988ZM88.044 53.6363H86.2587L89.6151 39.7344H91.4321L88.044 53.6363Z" fill="#D1D292"/>
</svg>
