<svg width="124" height="125" viewBox="0 0 124 125" fill="none" xmlns="http://www.w3.org/2000/svg">
<path d="M96.9166 1.54102H27.5832C13.2238 1.54102 1.58325 13.2287 1.58325 27.6463V97.2603C1.58325 111.678 13.2238 123.366 27.5832 123.366H96.9166C111.276 123.366 122.917 111.678 122.917 97.2603V27.6463C122.917 13.2287 111.276 1.54102 96.9166 1.54102Z" stroke="#B4B4B4" stroke-width="2"/>
<path d="M62.4128 22.9942L68.2785 32.0273C69.4784 33.8751 71.5266 34.9893 73.7235 34.9893H94.7499C100.135 34.9893 104.5 39.3722 104.5 44.7787V95.0849C104.5 100.491 100.135 104.874 94.7499 104.874H29.7499C24.3651 104.874 19.9999 100.491 19.9999 95.0849V29.8217C19.9999 24.4151 24.3651 20.0322 29.7499 20.0322H56.9679C59.1647 20.0322 61.213 21.1464 62.4128 22.9942Z" stroke="#D1D292" stroke-width="2"/>
<path d="M62.25 91.8216C75.4128 91.8216 86.0833 81.1078 86.0833 67.8917C86.0833 54.6757 75.4128 43.9619 62.25 43.9619C49.0872 43.9619 38.4166 54.6757 38.4166 67.8917C38.4166 81.1078 49.0872 91.8216 62.25 91.8216Z" fill="#096634" stroke="white"/>
<path d="M62.25 62.8066C65.0471 62.8066 67.3145 65.0833 67.3145 67.8917C67.3145 70.7001 65.0471 72.9768 62.25 72.9768C59.4529 72.9768 57.1854 70.7001 57.1854 67.8917C57.1854 65.0833 59.4529 62.8066 62.25 62.8066ZM51.5596 63.2965C51.7749 63.4213 51.9536 63.6008 52.0779 63.817L55.9466 70.5448C56.3377 71.2249 56.1056 72.0945 55.4283 72.4872C55.213 72.612 54.9688 72.6777 54.7202 72.6777H46.9828C46.2007 72.6777 45.5667 72.0411 45.5667 71.2558C45.5667 71.0062 45.6321 70.761 45.7564 70.5448L49.6251 63.817C50.0161 63.1369 50.8822 62.9038 51.5596 63.2965ZM77.1458 63.1058C78.133 63.1058 78.9333 63.9093 78.9333 64.9005V70.883C78.9333 71.8742 78.133 72.6777 77.1458 72.6777H71.1875C70.2003 72.6777 69.4 71.8742 69.4 70.883V64.9005C69.4 63.9093 70.2003 63.1058 71.1875 63.1058H77.1458Z" fill="#096634"/>
</svg>
