<svg width="124" height="125" viewBox="0 0 124 125" fill="none" xmlns="http://www.w3.org/2000/svg">
<path d="M96.6667 1.54077H27.3333C12.9739 1.54077 1.33334 13.2285 1.33334 27.646V97.2601C1.33334 111.678 12.9739 123.365 27.3333 123.365H96.6667C111.026 123.365 122.667 111.678 122.667 97.2601V27.646C122.667 13.2285 111.026 1.54077 96.6667 1.54077Z" stroke="#B4B4B4" stroke-width="2"/>
<path d="M19.2083 82.032H66.875M88.5417 82.032H104.792H88.5417Z" stroke="#B4B4B4" stroke-width="2" stroke-linecap="round"/>
<path d="M77.7084 88.5582C74.1185 88.5582 71.2084 85.6363 71.2084 82.0319C71.2084 78.4275 74.1185 75.5056 77.7084 75.5056C81.2982 75.5056 84.2084 78.4275 84.2084 82.0319C84.2084 85.6363 81.2982 88.5582 77.7084 88.5582Z" fill="#B4B4B4"/>
<path d="M104.792 99.4355H57.125M35.4584 99.4355H19.2084H35.4584Z" stroke="#B4B4B4" stroke-width="2" stroke-linecap="round"/>
<path d="M46.2917 105.962C49.8815 105.962 52.7917 103.04 52.7917 99.4355C52.7917 95.8311 49.8815 92.9092 46.2917 92.9092C42.7018 92.9092 39.7917 95.8311 39.7917 99.4355C39.7917 103.04 42.7018 105.962 46.2917 105.962Z" fill="#B4B4B4"/>
<path d="M30.1582 51.4292C27.5443 51.4292 25.8427 50.1664 25.8427 48.1609C25.8427 46.1553 27.4456 44.9669 30.4541 44.7688L36.1506 44.3726V46.3782C36.1506 49.3493 33.4873 51.4292 30.1582 51.4292ZM27.8155 56.703C31.2926 56.703 34.6463 55.0193 36.1259 52.172H36.2739V56.3811H43.228V37.6875C43.228 32.2403 38.6659 28.6502 31.6871 28.6502C24.9057 28.6502 20.2203 32.2403 20.023 37.4399H26.6072C26.9524 35.4591 28.7773 34.0726 31.3912 34.0726C34.3504 34.0726 36.1506 35.5086 36.1506 38.1332V39.9406L29.3691 40.3615C22.4397 40.7825 18.6667 43.5803 18.6667 48.5323C18.6667 53.4099 22.5876 56.703 27.8155 56.703ZM64.9346 56.703C71.7654 56.703 75.9822 51.4044 75.9822 42.7385C75.9822 34.0726 71.7654 28.7987 64.9099 28.7987C61.0383 28.7987 58.0298 30.6309 56.5255 33.7754H56.3776V18.9443H49.1769V56.3811H56.2543V51.7263H56.4022C57.9065 54.8708 60.9643 56.703 64.9346 56.703H64.9346ZM62.4932 34.642C66.1922 34.642 68.6089 37.8113 68.6089 42.7385C68.6089 47.6904 66.2169 50.8597 62.4932 50.8597C58.7942 50.8597 56.3529 47.6409 56.3282 42.7632C56.3529 37.8856 58.7942 34.642 62.4932 34.642ZM105.309 39.1731H98.6012C98.2066 36.3505 96.2338 34.3449 93.102 34.3449C89.403 34.3449 87.0603 37.5142 87.0603 42.7385C87.0603 48.0618 89.403 51.132 93.1267 51.132C96.1599 51.132 98.1573 49.4731 98.6259 46.4772H105.333C104.914 52.8157 100.179 56.8515 93.0527 56.8515C84.9396 56.8515 79.761 51.5034 79.761 42.7385C79.761 34.0973 84.9396 28.6502 93.0034 28.6502C100.303 28.6502 104.963 33.1069 105.309 39.1731Z" fill="white"/>
</svg>
