<svg width="124" height="125" viewBox="0 0 124 125" fill="none" xmlns="http://www.w3.org/2000/svg">
<path d="M66.1707 95.6287H40.9612C37.3713 95.6287 34.4612 92.7068 34.4612 89.1024V32.541C34.4612 28.9366 37.3713 26.0146 40.9612 26.0146H79.8866C83.4702 26.0146 86.3778 28.9268 86.3866 32.5249L86.4612 62.9301" stroke="#096634" stroke-width="2" stroke-linecap="round"/>
<path d="M49.6279 60.8217V58.6463C49.6279 56.2434 51.568 54.2954 53.9612 54.2954H66.9612C69.3544 54.2954 71.2945 56.2434 71.2945 58.6463V60.8217" stroke="#B80000" stroke-width="2" stroke-linecap="round" stroke-linejoin="round"/>
<path d="M60.4612 47.7693C63.4528 47.7693 65.8779 45.3343 65.8779 42.3307C65.8779 39.327 63.4528 36.8921 60.4612 36.8921C57.4697 36.8921 55.0446 39.327 55.0446 42.3307C55.0446 45.3343 57.4697 47.7693 60.4612 47.7693Z" stroke="#B80000" stroke-width="2"/>
<path d="M45.2945 83.664H58.2945M45.2945 77.1376H60.4612H45.2945ZM45.2945 70.6113H66.9612H45.2945Z" stroke="#096634" stroke-width="2" stroke-linecap="round" stroke-linejoin="round"/>
<path d="M88.142 71.3228C88.692 71.3228 89.1547 71.7365 89.2181 72.2851L89.4657 74.4282C90.7456 74.735 91.9479 75.2422 93.038 75.915L94.7229 74.5747C95.154 74.2317 95.7727 74.2676 96.1617 74.6581L98.3512 76.8566C98.7401 77.247 98.7759 77.8682 98.4344 78.301L97.1 79.9939C97.7697 81.0881 98.2747 82.2949 98.5801 83.5795L100.714 83.8282C101.261 83.8918 101.673 84.3564 101.673 84.9087V88.0178C101.673 88.57 101.261 89.0346 100.715 89.0983L98.5801 89.3469C98.2746 90.6319 97.7694 91.8391 97.0993 92.9336L98.4342 94.6253C98.7758 95.0582 98.7401 95.6794 98.3511 96.0699L96.1616 98.2684C95.7726 98.6588 95.154 98.6948 94.7229 98.3519L93.0369 97.012C91.952 97.6815 90.756 98.1869 89.4831 98.494L89.2226 100.647C89.1565 101.193 88.6949 101.604 88.1471 101.604H85.04C84.4923 101.604 84.0307 101.193 83.9646 100.647L83.7032 98.4937C82.4362 98.188 81.2454 97.6856 80.1646 97.0207L78.4636 98.3591C78.0323 98.6983 77.4168 98.6609 77.0294 98.272L74.8323 96.0661C74.445 95.6772 74.4078 95.0592 74.7455 94.6262L76.078 92.9172C75.4159 91.832 74.9158 90.6364 74.6114 89.3643L72.467 89.1027C71.9232 89.0364 71.5143 88.573 71.5143 88.0229V84.9033C71.5143 84.3533 71.9231 83.8899 72.4669 83.8235L74.6116 83.561C74.9161 82.2893 75.4161 81.0941 76.078 80.0092L74.7457 78.3002C74.4079 77.8672 74.4451 77.2491 74.8325 76.8602L77.0295 74.6543C77.4168 74.2654 78.0323 74.2279 78.4635 74.567L80.1657 75.905C81.2514 75.2372 82.4481 74.7334 83.7216 74.4282L83.9693 72.2853C84.0327 71.7366 84.4954 71.3228 85.0455 71.3228H88.142V71.3228Z" stroke="#D1D292" stroke-width="2"/>
<path d="M86.5937 92.8339C90.098 92.8339 92.9388 89.9816 92.9388 86.4631C92.9388 82.9446 90.098 80.0923 86.5937 80.0923C83.0893 80.0923 80.2485 82.9446 80.2485 86.4631C80.2485 89.9816 83.0893 92.8339 86.5937 92.8339Z" stroke="#D1D292" stroke-width="2"/>
<path d="M96.4166 1.54102H27.0833C12.7239 1.54102 1.08331 13.2287 1.08331 27.6463V97.2603C1.08331 111.678 12.7239 123.366 27.0833 123.366H96.4166C110.776 123.366 122.417 111.678 122.417 97.2603V27.6463C122.417 13.2287 110.776 1.54102 96.4166 1.54102Z" stroke="#B4B4B4" stroke-width="2"/>
</svg>
