<svg width="124" height="125" viewBox="0 0 124 125" fill="none" xmlns="http://www.w3.org/2000/svg">
<path d="M96.9167 1.54077H27.5834C13.224 1.54077 1.58337 13.2285 1.58337 27.646V97.2601C1.58337 111.678 13.224 123.365 27.5834 123.365H96.9167C111.276 123.365 122.917 111.678 122.917 97.2601V27.646C122.917 13.2285 111.276 1.54077 96.9167 1.54077Z" stroke="#B4B4B4" stroke-width="2"/>
<path d="M35.1667 104.874C44.7396 104.874 52.5 97.0823 52.5 87.4706C52.5 77.859 44.7396 70.0671 35.1667 70.0671C25.5938 70.0671 17.8334 77.859 17.8334 87.4706C17.8334 97.0823 25.5938 104.874 35.1667 104.874Z" stroke="#D1D292" stroke-width="2"/>
<path d="M42.7048 88.6194L32.0241 94.8109C31.3921 95.1772 30.584 94.9598 30.2191 94.3253C30.1032 94.1236 30.0421 93.8948 30.0421 93.662V81.2791C30.0421 80.5464 30.6337 79.9524 31.3634 79.9524C31.5954 79.9524 31.8232 80.0137 32.0241 80.1301L42.7048 86.3216C43.3368 86.6879 43.5533 87.4993 43.1884 88.1338C43.0724 88.3355 42.9056 88.503 42.7048 88.6194V88.6194Z" stroke="#D1D292" stroke-width="2"/>
<path d="M84.439 70.6305V104.311C84.439 105.223 85.1752 105.962 86.0834 105.962C86.9915 105.962 87.7277 105.223 87.7277 104.311V70.6305C87.7277 69.7187 86.9915 68.9795 86.0834 68.9795C85.1752 68.9795 84.439 69.7187 84.439 70.6305Z" fill="#096634"/>
<path d="M90.0298 77.2343V97.7067C90.0298 98.6185 90.766 99.3577 91.6741 99.3577C92.5823 99.3577 93.3185 98.6185 93.3185 97.7067V77.2343C93.3185 76.3224 92.5823 75.5833 91.6741 75.5833C90.766 75.5833 90.0298 76.3224 90.0298 77.2343ZM73.2575 77.2343V97.7067C73.2575 98.6185 73.9937 99.3577 74.9019 99.3577C75.81 99.3577 76.5462 98.6185 76.5462 97.7067V77.2343C76.5462 76.3224 75.81 75.5833 74.9019 75.5833C73.9937 75.5833 73.2575 76.3224 73.2575 77.2343Z" fill="white"/>
<path d="M67.6667 82.1874V92.7538C67.6667 93.6656 68.4029 94.4048 69.311 94.4048C70.2192 94.4048 70.9554 93.6656 70.9554 92.7538V82.1874C70.9554 81.2756 70.2192 80.5364 69.311 80.5364C68.4029 80.5364 67.6667 81.2756 67.6667 82.1874Z" fill="#096634"/>
<path d="M78.8483 82.1874V92.7538C78.8483 93.6656 79.5845 94.4048 80.4926 94.4048C81.4008 94.4048 82.137 93.6656 82.137 92.7538V82.1874C82.137 81.2756 81.4008 80.5364 80.4926 80.5364C79.5845 80.5364 78.8483 81.2756 78.8483 82.1874ZM95.6206 84.829V90.1122C95.6206 91.024 96.3568 91.7632 97.265 91.7632C98.1731 91.7632 98.9093 91.024 98.9093 90.1122V84.829C98.9093 83.9172 98.1731 83.178 97.265 83.178C96.3568 83.178 95.6206 83.9172 95.6206 84.829Z" fill="white"/>
<path d="M101.211 87.1405V87.4707C101.211 88.3825 101.948 89.1217 102.856 89.1217C103.764 89.1217 104.5 88.3825 104.5 87.4707V87.1405C104.5 86.2287 103.764 85.4895 102.856 85.4895C101.948 85.4895 101.211 86.2287 101.211 87.1405Z" fill="#096634"/>
<path d="M93.2157 28.7825C100.173 28.7825 105.814 34.2883 105.814 41.0801C105.814 47.8719 100.173 53.3778 93.2157 53.3778C87.1209 53.3778 82.037 49.1529 80.8697 43.5397L91.3216 43.5397C91.7602 43.5397 92.1911 43.4269 92.571 43.2129C93.7661 42.5393 94.1756 41.0475 93.4856 39.8809L87.6638 30.038C89.3387 29.234 91.2232 28.7825 93.2157 28.7825V28.7825Z" stroke="#B80000" stroke-width="2"/>
<path d="M80.9096 19.2715C81.2894 19.4856 81.6049 19.7935 81.8242 20.1643L87.6638 30.0379C83.4901 32.0414 80.6177 36.2333 80.6177 41.0801C80.6177 41.9224 80.7044 42.745 80.8697 43.5397H67.9988C66.6188 43.5397 65.5001 42.4476 65.5001 41.1005C65.5001 40.6723 65.6155 40.2517 65.8348 39.8809L77.4962 20.1643C78.1862 18.9977 79.7144 18.598 80.9096 19.2715Z" stroke="#B80000" stroke-width="2"/>
<path d="M87.6638 30.0378L93.4856 39.8808C94.1756 41.0474 93.7661 42.5392 92.5709 43.2128C92.1911 43.4268 91.7602 43.5395 91.3216 43.5395L80.8697 43.5397C80.7044 42.7449 80.6177 41.9224 80.6177 41.08C80.6177 36.2332 83.4901 32.0413 87.6638 30.0378Z" fill="#1C1C1E" stroke="#B80000" stroke-width="2"/>
<path d="M20 21.1196H26.5C27.6967 21.1196 28.6667 22.0936 28.6667 23.2951C28.6667 24.4965 27.6967 25.4705 26.5 25.4705H20C18.8034 25.4705 17.8334 24.4965 17.8334 23.2951C17.8334 22.0936 18.8034 21.1196 20 21.1196ZM33 21.1196H50.3334C51.53 21.1196 52.5 22.0936 52.5 23.2951C52.5 24.4965 51.53 25.4705 50.3334 25.4705H33C31.8034 25.4705 30.8334 24.4965 30.8334 23.2951C30.8334 22.0936 31.8034 21.1196 33 21.1196Z" fill="#096634"/>
<path d="M41.6667 29.8213H20C18.8034 29.8213 17.8334 30.7953 17.8334 31.9967C17.8334 33.1982 18.8034 34.1722 20 34.1722H41.6667C42.8633 34.1722 43.8334 33.1982 43.8334 31.9967C43.8334 30.7953 42.8633 29.8213 41.6667 29.8213Z" fill="white"/>
<path d="M41.6667 47.2249H20C18.8034 47.2249 17.8334 48.1988 17.8334 49.4003C17.8334 50.6018 18.8034 51.5757 20 51.5757H41.6667C42.8633 51.5757 43.8334 50.6018 43.8334 49.4003C43.8334 48.1988 42.8633 47.2249 41.6667 47.2249Z" fill="white"/>
<path d="M50.3334 38.5232H20C18.8034 38.5232 17.8334 39.4972 17.8334 40.6986C17.8334 41.9001 18.8034 42.8741 20 42.8741H50.3334C51.53 42.8741 52.5 41.9001 52.5 40.6986C52.5 39.4972 51.53 38.5232 50.3334 38.5232Z" fill="#096634"/>
</svg>
