<svg width="142" height="151" viewBox="0 0 142 151" fill="none" xmlns="http://www.w3.org/2000/svg">
<path d="M80.7226 80.4156L135.518 108.514C140.959 111.304 140.959 115.827 135.518 118.617L80.7226 146.716C75.2821 149.506 66.4613 149.506 61.0208 146.716L6.22521 118.617C0.784712 115.827 0.784712 111.304 6.22521 108.514L61.0208 80.4156C66.4613 77.6258 75.2821 77.6258 80.7226 80.4156V80.4156Z" stroke="#096634" stroke-width="3"/>
<path d="M80.7226 42.0496L135.518 70.1483C140.959 72.9381 140.959 77.4613 135.518 80.2511L80.7226 108.35C75.2821 111.14 66.4613 111.14 61.0208 108.35L6.22521 80.2511C0.784712 77.4613 0.784712 72.9381 6.22521 70.1483L61.0208 42.0496C66.4613 39.2598 75.2821 39.2598 80.7226 42.0496Z" stroke="#B80000" stroke-width="3" stroke-linecap="round" stroke-linejoin="round"/>
<path d="M80.7226 3.68369L135.518 31.7823C140.959 34.5721 140.959 39.0954 135.518 41.8852L80.7226 69.9838C75.2821 72.7736 66.4613 72.7736 61.0208 69.9838L6.22521 41.8852C0.784712 39.0954 0.784712 34.5721 6.22521 31.7823L61.0208 3.68368C66.4613 0.893851 75.2821 0.893851 80.7226 3.68368V3.68369Z" stroke="#D1D292" stroke-width="3"/>
</svg>
