<svg width="27" height="42" viewBox="0 0 27 42" fill="none" xmlns="http://www.w3.org/2000/svg">
<path d="M15.173 3.11111C16.2651 3.11111 17.3154 3.64888 18.1062 4.61301L22.4808 9.94627C23.3237 10.9739 23.8007 12.3988 23.8007 13.8888V36.5556C23.8007 39.5624 21.8966 42 19.5476 42H4.96557C2.61664 42 0.712463 39.5624 0.712463 36.5556V8.55556C0.712463 5.54867 2.61664 3.11111 4.96557 3.11111H15.173ZM15.173 4.66667H4.96557C3.28776 4.66667 1.92764 6.40778 1.92764 8.55556V36.5556C1.92764 38.7033 3.28776 40.4444 4.96557 40.4444H19.5476C21.2254 40.4444 22.5856 38.7033 22.5856 36.5556V13.8888C22.5856 12.8245 22.2448 11.8067 21.6427 11.0727L17.2681 5.73945C16.7033 5.05079 15.9531 4.66667 15.173 4.66667ZM16.2995 0C17.2974 0 18.2612 0.449058 19.024 1.26371L19.1843 1.44385L24.8677 8.15956C25.6823 9.12208 26.1689 10.4508 26.2296 11.8604L26.236 12.1433L26.2875 33.442C26.2885 33.8716 26.0173 34.2209 25.6818 34.2222C25.3742 34.2234 25.1192 33.9318 25.0781 33.5524L25.0723 33.4468L25.0208 12.1481C25.0184 11.1442 24.7129 10.1835 24.1724 9.4642L24.0435 9.30258L18.3601 2.58688C17.8457 1.97903 17.1846 1.61897 16.4898 1.56318L16.2995 1.55556H8.0035C7.66794 1.55556 7.39591 1.20733 7.39591 0.777778C7.39591 0.384019 7.62449 0.058602 7.92105 0.00710019L8.0035 0H16.2995ZM14.6536 22.1158C16.9331 22.1158 18.7811 24.4813 18.7811 27.3994C18.7811 30.3175 16.9331 32.683 14.6536 32.683C12.6568 32.683 10.9911 30.8679 10.6087 28.4562L14.033 28.4561C14.1767 28.4561 14.3179 28.4077 14.4424 28.3157C14.8339 28.0263 14.9681 27.3854 14.742 26.8842L12.8346 22.6552C13.3834 22.3098 14.0008 22.1158 14.6536 22.1158ZM10.6218 18.0295C10.7462 18.1214 10.8495 18.2537 10.9214 18.4131L12.8346 22.6552C11.4672 23.516 10.5261 25.317 10.5261 27.3994C10.5261 27.7613 10.5545 28.1147 10.6087 28.4562H6.39181C5.93968 28.4562 5.57315 27.9869 5.57315 27.4082C5.57315 27.2242 5.61098 27.0435 5.68283 26.8842L9.50344 18.4131C9.72951 17.9118 10.2302 17.7401 10.6218 18.0295ZM15.362 6.22222C15.6696 6.22222 15.9238 6.51483 15.9641 6.89446L15.9696 7V11.9359C15.9696 12.37 16.2474 12.7419 16.6178 12.7965L16.7122 12.8034H20.7628C21.0984 12.8034 21.3704 13.1516 21.3704 13.5812C21.3704 13.975 21.1418 14.3004 20.8452 14.3519L20.7628 14.359H16.7122C15.6823 14.359 14.8284 13.3707 14.759 12.1028L14.7545 11.9359V7C14.7545 6.57044 15.0265 6.22222 15.362 6.22222Z" fill="#D1D292"/>
</svg>
