<svg width="41" height="42" viewBox="0 0 41 42" fill="none" xmlns="http://www.w3.org/2000/svg">
<path d="M37.0517 0.403809C38.9562 0.403809 40.5 1.98531 40.5 3.93619V37.847C40.5 39.7979 38.9562 41.3794 37.0517 41.3794H24.6379C22.7335 41.3794 21.1897 39.7979 21.1897 37.847V3.93619C21.1897 1.98531 22.7335 0.403809 24.6379 0.403809H37.0517ZM16.3621 21.5981C18.2665 21.5981 19.8103 23.1796 19.8103 25.1305V37.847C19.8103 39.7979 18.2665 41.3794 16.3621 41.3794H3.94828C2.04385 41.3794 0.5 39.7979 0.5 37.847V25.1305C0.5 23.1796 2.04385 21.5981 3.94828 21.5981H16.3621ZM37.0517 1.81676H24.6379C23.4953 1.81676 22.569 2.76566 22.569 3.93619V37.847C22.569 39.0176 23.4953 39.9665 24.6379 39.9665H37.0517C38.1944 39.9665 39.1207 39.0176 39.1207 37.847V3.93619C39.1207 2.76566 38.1944 1.81676 37.0517 1.81676ZM16.3621 23.011H3.94828C2.80562 23.011 1.87931 23.9599 1.87931 25.1305V37.847C1.87931 39.0176 2.80562 39.9665 3.94828 39.9665H16.3621C17.5047 39.9665 18.431 39.0176 18.431 37.847V25.1305C18.431 23.9599 17.5047 23.011 16.3621 23.011ZM10.1552 26.5434C12.8214 26.5434 14.9828 28.7575 14.9828 31.4888C14.9828 34.22 12.8214 36.4341 10.1552 36.4341C7.48897 36.4341 5.32759 34.22 5.32759 31.4888C5.32759 28.7575 7.48897 26.5434 10.1552 26.5434ZM9.15113 29.3693C8.9495 29.3693 8.78604 29.5368 8.78604 29.7433V33.2341C8.78604 33.2998 8.80291 33.3643 8.83495 33.4211C8.93577 33.6 9.15906 33.6613 9.33368 33.558L12.2848 31.8126C12.3403 31.7798 12.3864 31.7326 12.4185 31.6757C12.5193 31.4968 12.4594 31.2681 12.2848 31.1648L9.33368 29.4194C9.27818 29.3866 9.21522 29.3693 9.15113 29.3693ZM32.713 18.4726C34.6536 18.4726 36.2267 20.0841 36.2267 22.072C36.2267 24.06 34.6536 25.6715 32.713 25.6715C31.0131 25.6715 29.5951 24.4349 29.2695 22.7919L32.1847 22.7919C32.307 22.7919 32.4272 22.7589 32.5332 22.6963C32.8665 22.4991 32.9807 22.0625 32.7883 21.721L31.1645 18.8401C31.6317 18.6048 32.1573 18.4726 32.713 18.4726ZM29.2807 15.6888C29.3866 15.7515 29.4746 15.8416 29.5358 15.9501L31.1645 18.8401C30.0004 19.4265 29.1992 20.6534 29.1992 22.072C29.1992 22.3186 29.2234 22.5593 29.2695 22.7919H25.6797C25.2948 22.7919 24.9828 22.4723 24.9828 22.078C24.9828 21.9527 25.015 21.8296 25.0761 21.721L28.3286 15.9501C28.5211 15.6087 28.9473 15.4917 29.2807 15.6888ZM16.3621 0.403809C18.2665 0.403809 19.8103 1.98531 19.8103 3.93619V16.6528C19.8103 18.6036 18.2665 20.1851 16.3621 20.1851H3.94828C2.04385 20.1851 0.5 18.6036 0.5 16.6528V3.93619C0.5 1.98531 2.04385 0.403809 3.94828 0.403809H16.3621ZM16.3621 1.81676H3.94828C2.80562 1.81676 1.87931 2.76566 1.87931 3.93619V16.6528C1.87931 17.8233 2.80562 18.7722 3.94828 18.7722H16.3621C17.5047 18.7722 18.431 17.8233 18.431 16.6528V3.93619C18.431 2.76566 17.5047 1.81676 16.3621 1.81676ZM12.2241 13.1204C12.605 13.1204 12.9138 13.4367 12.9138 13.8269C12.9138 14.217 12.605 14.5333 12.2241 14.5333H5.32759C4.9467 14.5333 4.63793 14.217 4.63793 13.8269C4.63793 13.4367 4.9467 13.1204 5.32759 13.1204H12.2241ZM14.9828 10.2945C15.3636 10.2945 15.6724 10.6108 15.6724 11.0009C15.6724 11.3911 15.3636 11.7074 14.9828 11.7074H5.32759C4.9467 11.7074 4.63793 11.3911 4.63793 11.0009C4.63793 10.6108 4.9467 10.2945 5.32759 10.2945H14.9828ZM12.2241 7.46857C12.605 7.46857 12.9138 7.78487 12.9138 8.17504C12.9138 8.56522 12.605 8.88152 12.2241 8.88152H5.32759C4.9467 8.88152 4.63793 8.56522 4.63793 8.17504C4.63793 7.78487 4.9467 7.46857 5.32759 7.46857H12.2241ZM14.9828 4.64266C15.3636 4.64266 15.6724 4.95896 15.6724 5.34914C15.6724 5.73932 15.3636 6.05562 14.9828 6.05562H5.32759C4.9467 6.05562 4.63793 5.73932 4.63793 5.34914C4.63793 4.95896 4.9467 4.64266 5.32759 4.64266H14.9828Z" fill="#096634"/>
</svg>
