<svg width="34" height="42" viewBox="0 0 34 42" fill="none" xmlns="http://www.w3.org/2000/svg">
<path d="M25.0023 20.2964C25.6557 20.2964 26.2054 20.834 26.2807 21.5467L26.3775 22.463C26.8896 22.632 27.3836 22.8572 27.8529 23.1346L28.5116 22.5616C29.0238 22.116 29.7588 22.1626 30.2208 22.67L31.5214 24.098C31.9834 24.6053 32.0259 25.4123 31.6204 25.9745L31.0984 26.6985C31.351 27.2137 31.556 27.756 31.7099 28.3181L32.5442 28.4245C33.1933 28.5071 33.683 29.1107 33.683 29.8282V31.8478C33.683 32.5652 33.1934 33.1688 32.5444 33.2515L31.7099 33.3578C31.556 33.9201 31.3509 34.4626 31.0982 34.9778L31.6201 35.7011C32.0259 36.2635 31.9834 37.0705 31.5214 37.5779L30.2208 39.006C29.7588 39.5133 29.0239 39.5599 28.5119 39.1146L27.8524 38.5415C27.3857 38.8174 26.8946 39.0416 26.3854 39.2102L26.2829 40.1366C26.2045 40.846 25.6561 41.3794 25.0053 41.3794H23.1598C22.5091 41.3794 21.9608 40.8461 21.8822 40.1371L21.7793 39.2101C21.2729 39.0423 20.7841 38.8195 20.3196 38.5456L19.6503 39.1215C19.138 39.5622 18.4068 39.5136 17.9466 39.0083L16.6416 37.5754C16.1815 37.0702 16.1372 36.2673 16.5383 35.7049L17.0628 34.9693C16.8134 34.4592 16.6105 33.9226 16.4577 33.3665L15.6141 33.2539C14.968 33.1678 14.4822 32.5657 14.4822 31.8511V29.8246C14.4822 29.1101 14.9679 28.5081 15.6137 28.4219L16.4579 28.3089C16.6106 27.7529 16.8135 27.2165 17.0628 26.7066L16.5386 25.9711C16.1372 25.4086 16.1815 24.6057 16.6416 24.1004L17.9467 22.6675C18.4068 22.1622 19.1379 22.1136 19.6501 22.5541L20.3201 23.13C20.7871 22.8547 21.2785 22.631 21.7878 22.463L21.8846 21.5469C21.9598 20.8341 22.5096 20.2964 23.163 20.2964H25.0023ZM25.0023 21.7096H23.163L22.9639 23.5927L22.5261 23.7075C21.8443 23.8862 21.1955 24.1819 20.6006 24.582L20.2196 24.8383L19.8678 24.5359L18.8567 23.6667L17.5517 25.0996L18.6186 26.5963L18.3852 27.0146C18.0226 27.6646 17.7541 28.3732 17.5911 29.1178L17.4867 29.5947L17.0433 29.6541L15.7692 29.8246V31.8511L17.4866 32.0802L17.591 32.5574C17.754 33.3022 18.0224 34.011 18.3852 34.6613L18.6186 35.0796L18.3432 35.4659L17.5516 36.5761L18.8566 38.0091L20.2188 36.837L20.6 37.0934C21.1922 37.4918 21.8377 37.7867 22.5161 37.9657L22.9504 38.0804L23.0044 38.5672L23.1598 39.9663H25.0053L25.214 38.0805L25.6485 37.9659C26.33 37.7861 26.9784 37.4894 27.5728 37.0883L27.9563 36.8295L28.3091 37.1362L29.3108 38.0067L30.6113 36.5787L29.5388 35.0922L29.7746 34.671C30.1418 34.0151 30.4129 33.2994 30.5765 32.5471L30.681 32.0662L31.1282 32.0093L32.396 31.8478V29.8282L30.681 29.6096L30.5765 29.1288C30.413 28.3767 30.142 27.6612 29.7749 27.0055L29.5393 26.5845L29.8186 26.1971L30.6114 25.0973L29.3108 23.6692L27.9571 24.8469L27.5734 24.588C26.9761 24.1848 26.3243 23.8871 25.6391 23.7075L25.2012 23.5927L25.1494 23.1017L25.0023 21.7096ZM20.233 0.403809C22.6639 0.403809 24.646 2.51838 24.7344 5.16552L24.7374 5.3352L24.7695 17.3047C24.7705 17.6949 24.4833 18.0122 24.1279 18.0133C23.7979 18.0144 23.5252 17.7425 23.487 17.3912L23.4825 17.3088L23.4504 5.33935C23.4454 3.44354 22.081 1.9001 20.3723 1.82018L20.233 1.81693H4.82151C3.09135 1.81693 1.68015 3.31647 1.60708 5.19649L1.6041 5.34974V32.1991C1.6041 34.0988 2.96977 35.6484 4.68195 35.7286L4.82151 35.7319H12.3336C12.689 35.7319 12.9771 36.0482 12.9771 36.4384C12.9771 36.8008 12.7287 37.0994 12.4087 37.1402L12.3336 37.145H4.82151C2.38564 37.145 0.401371 35.0219 0.319751 32.3691L0.317139 32.1991V5.34974C0.317139 2.67508 2.25066 0.496298 4.66666 0.406677L4.82151 0.403809H20.233ZM24.0826 25.993C26.5195 25.993 28.495 28.1622 28.495 30.8379C28.495 33.5137 26.5195 35.6828 24.0826 35.6828C21.6457 35.6828 19.6702 33.5137 19.6702 30.8379C19.6702 28.1622 21.6457 25.993 24.0826 25.993ZM24.0826 27.4061C22.3565 27.4061 20.9572 28.9426 20.9572 30.8379C20.9572 32.7333 22.3565 34.2697 24.0826 34.2697C25.8087 34.2697 27.208 32.7333 27.208 30.8379C27.208 28.9426 25.8087 27.4061 24.0826 27.4061ZM11.2563 31.1392C11.6117 31.1392 11.8998 31.4556 11.8998 31.8458C11.8998 32.2081 11.6514 32.5068 11.3314 32.5476L11.2563 32.5524H4.82151C4.46613 32.5524 4.17803 32.236 4.17803 31.8458C4.17803 31.4834 4.42644 31.1848 4.74647 31.144L4.82151 31.1392H11.2563ZM11.2563 26.8999C11.6117 26.8999 11.8998 27.2162 11.8998 27.6064C11.8998 27.9688 11.6514 28.2674 11.3314 28.3082L11.2563 28.313H4.82151C4.46613 28.313 4.17803 27.9966 4.17803 27.6064C4.17803 27.2441 4.42644 26.9454 4.74647 26.9046L4.82151 26.8999H11.2563ZM13.8303 22.6605C14.1856 22.6605 14.4737 22.9768 14.4737 23.3671C14.4737 23.7294 14.2253 24.028 13.9053 24.0689L13.8303 24.0736H4.82151C4.46613 24.0736 4.17803 23.7573 4.17803 23.3671C4.17803 23.0047 4.42644 22.7061 4.74647 22.6652L4.82151 22.6605H13.8303ZM16.4042 13.8285C18.1344 13.8285 19.5456 15.328 19.6186 17.208L19.6216 17.3613V18.7744C19.6216 19.1646 19.3335 19.481 18.9781 19.481C18.6481 19.481 18.3761 19.2082 18.339 18.8568L18.3346 18.7744V17.3613C18.3346 16.2324 17.531 15.3097 16.5176 15.2452L16.4042 15.2416H8.68241C7.65433 15.2416 6.81395 16.124 6.75524 17.2367L6.75196 17.3613V18.7744C6.75196 19.1646 6.46386 19.481 6.10848 19.481C5.77848 19.481 5.5065 19.2082 5.46933 18.8568L5.465 18.7744V17.3613C5.465 15.4615 6.83066 13.912 8.54284 13.8317L8.68241 13.8285H16.4042ZM12.5433 3.93662C14.6756 3.93662 16.4042 5.83465 16.4042 8.17598C16.4042 10.5173 14.6756 12.4154 12.5433 12.4154C10.411 12.4154 8.68241 10.5173 8.68241 8.17598C8.68241 5.83465 10.411 3.93662 12.5433 3.93662ZM12.5433 5.34974C11.1218 5.34974 9.96937 6.61509 9.96937 8.17598C9.96937 9.73688 11.1218 11.0022 12.5433 11.0022C13.9648 11.0022 15.1172 9.73688 15.1172 8.17598C15.1172 6.61509 13.9648 5.34974 12.5433 5.34974Z" fill="#B4B4B4"/>
</svg>
