<svg width="29" height="41" viewBox="0 0 29 41" fill="none" xmlns="http://www.w3.org/2000/svg">
<path d="M23.6992 0C26.3169 0 28.439 1.69865 28.439 3.79404V37.1816C28.439 39.277 26.3169 40.9756 23.6992 40.9756H4.73984C2.1221 40.9756 0 39.277 0 37.1816V3.79404C0 1.69865 2.1221 0 4.73984 0H23.6992ZM23.6992 1.51762H4.73984C3.16919 1.51762 1.89593 2.5368 1.89593 3.79404V37.1816C1.89593 38.4388 3.16919 39.458 4.73984 39.458H23.6992C25.2698 39.458 26.5431 38.4388 26.5431 37.1816V3.79404C26.5431 2.5368 25.2698 1.51762 23.6992 1.51762ZM21.3293 22.0054C21.8528 22.0054 22.2772 22.3451 22.2772 22.7642V34.9051C22.2772 35.3242 21.8528 35.664 21.3293 35.664C20.8057 35.664 20.3813 35.3242 20.3813 34.9051V22.7642C20.3813 22.3451 20.8057 22.0054 21.3293 22.0054ZM11.8496 28.8347C12.3731 28.8347 12.7976 29.1744 12.7976 29.5935V34.9051C12.7976 35.3242 12.3731 35.664 11.8496 35.664C11.326 35.664 10.9016 35.3242 10.9016 34.9051V29.5935C10.9016 29.1744 11.326 28.8347 11.8496 28.8347ZM16.5384 28.1167C17.0619 28.1167 17.4863 28.4565 17.4863 28.8755V34.8643C17.4863 35.2834 17.0619 35.6231 16.5384 35.6231C16.0148 35.6231 15.5904 35.2834 15.5904 34.8643V28.8755C15.5904 28.4565 16.0148 28.1167 16.5384 28.1167ZM6.88471 25.9796C7.40826 25.9796 7.83268 26.3193 7.83268 26.7384V34.725C7.83268 35.1441 7.40826 35.4838 6.88471 35.4838C6.36116 35.4838 5.93674 35.1441 5.93674 34.725V26.7384C5.93674 26.3193 6.36116 25.9796 6.88471 25.9796ZM14.0389 4.55285C18.6512 4.55285 22.3901 7.5457 22.3901 11.2376C22.3901 14.9295 18.6512 17.9223 14.0389 17.9223C9.42674 17.9223 5.6878 14.9295 5.6878 11.2376C5.6878 7.5457 9.42674 4.55285 14.0389 4.55285ZM14.0389 6.07046C10.4738 6.07046 7.58374 8.38386 7.58374 11.2376C7.58374 13.8334 9.97508 15.9822 13.0906 16.3493L13.091 11.2376C13.091 11.0366 13.1905 10.8452 13.3647 10.7042L13.4579 10.638L18.5032 7.50532C17.3438 6.61653 15.771 6.07046 14.0389 6.07046ZM19.6665 8.70442L14.9869 11.6093L14.9873 16.3493C18.1028 15.9822 20.4942 13.8334 20.4942 11.2376C20.4942 10.3172 20.1935 9.45294 19.6665 8.70442Z" fill="#B4B4B4"/>
</svg>
