<svg width="44" height="40" viewBox="0 0 44 40" fill="none" xmlns="http://www.w3.org/2000/svg">
<path d="M40.731 25.5681L40.8124 25.6015L42.3195 26.3202C44.5114 27.3655 44.5591 29.3606 42.4625 30.4471L42.3195 30.5182L25.3839 38.5942C23.559 39.4644 20.7303 39.4966 18.831 38.6908L18.6161 38.5942L1.68049 30.5182C-0.511431 29.4729 -0.559081 27.4778 1.53741 26.3913L1.68035 26.3203L3.18668 25.6016C3.56138 25.4228 4.0171 25.5676 4.20455 25.925C4.3786 26.2568 4.26015 26.6553 3.94233 26.8536L3.86549 26.8957L2.35902 27.6145C1.27537 28.1312 1.23801 28.6516 2.24692 29.1686L2.35902 29.2239L19.2947 37.2999C20.7014 37.9707 23.0329 37.9987 24.5168 37.3837L24.7054 37.2999L41.641 29.2239C42.7246 28.7072 42.762 28.1869 41.7531 27.6699L41.641 27.6145L40.1339 26.8958C39.7592 26.7171 39.6073 26.2825 39.7946 25.9251C39.9686 25.5932 40.374 25.4446 40.731 25.5681ZM40.731 16.886L40.8124 16.9194L42.3195 17.638C44.5114 18.6833 44.5591 20.6784 42.4625 21.7649L42.3195 21.836L25.3839 29.912C23.559 30.7822 20.7303 30.8144 18.831 30.0087L18.6161 29.912L1.68049 21.836C-0.511431 20.7908 -0.559081 18.7957 1.53741 17.7092L1.68035 17.6381L3.18668 16.9194C3.56138 16.7407 4.0171 16.8854 4.20455 17.2428C4.3786 17.5746 4.26015 17.9731 3.94233 18.1714L3.86549 18.2136L2.35902 18.9323C1.27537 19.4491 1.23801 19.9694 2.24692 20.4864L2.35902 20.5418L19.2947 28.6177C20.7014 29.2885 23.0329 29.3165 24.5168 28.7016L24.7054 28.6177L41.641 20.5418C42.7246 20.025 42.762 19.5047 41.7531 18.9877L41.641 18.9323L40.1339 18.2136C39.7592 18.0349 39.6073 17.6003 39.7946 17.2429C39.9686 16.911 40.374 16.7624 40.731 16.886ZM25.3839 0.879911L42.3195 8.95587C44.5602 10.0243 44.5602 12.0854 42.3195 13.1538L25.3839 21.2298C23.4888 22.1335 20.5112 22.1335 18.6161 21.2298L1.68049 13.1538C-0.56014 12.0854 -0.56014 10.0243 1.68049 8.95587L18.6161 0.879911C20.5112 -0.0237725 23.4888 -0.0237725 25.3839 0.879911ZM19.2947 2.17417L2.35902 10.2501C1.23667 10.7853 1.23667 11.3244 2.35902 11.8596L19.2947 19.9356C20.7626 20.6355 23.2374 20.6355 24.7054 19.9356L41.641 11.8596C42.7633 11.3244 42.7633 10.7853 41.641 10.2501L24.7054 2.17417C23.2374 1.47418 20.7626 1.47418 19.2947 2.17417ZM18.6161 8.11505C20.5112 7.21137 23.4888 7.21137 25.3839 8.11505L33.8517 12.153C34.2264 12.3317 34.3783 12.7663 34.191 13.1237C34.0036 13.4811 33.5479 13.626 33.1732 13.4473L24.7054 9.40932C23.2374 8.70932 20.7626 8.70932 19.2947 9.40932L10.1142 13.7871C9.73949 13.9658 9.28381 13.8209 9.09644 13.4635C8.90907 13.1061 9.06096 12.6715 9.4357 12.4928L18.6161 8.11505Z" fill="#B80000"/>
</svg>
